<svg width="38" height="50" viewBox="0 0 38 50" fill="none" xmlns="http://www.w3.org/2000/svg">
<path d="M36.7084 8.33333V46.875C36.7084 47.4275 36.4889 47.9574 36.0982 48.3481C35.7075 48.7388 35.1776 48.9583 34.625 48.9583H3.37502C2.82249 48.9583 2.29258 48.7388 1.90188 48.3481C1.51118 47.9574 1.29169 47.4275 1.29169 46.875V8.33333C1.29169 7.7808 1.51118 7.25089 1.90188 6.86019C2.29258 6.46949 2.82249 6.25 3.37502 6.25H9.62502V10.4167H5.45835V44.7917H32.5417V10.4167H28.375V6.25H34.625C35.1776 6.25 35.7075 6.46949 36.0982 6.86019C36.4889 7.25089 36.7084 7.7808 36.7084 8.33333Z" fill="#DCE775"/>
<path d="M32.5417 45.8333H5.45835C5.18209 45.8333 4.91713 45.7236 4.72178 45.5282C4.52643 45.3329 4.41669 45.0679 4.41669 44.7917V10.4167C4.41669 10.1404 4.52643 9.87545 4.72178 9.6801C4.91713 9.48475 5.18209 9.375 5.45835 9.375H10.6667C10.943 9.375 11.2079 9.48475 11.4033 9.6801C11.5986 9.87545 11.7084 10.1404 11.7084 10.4167C11.7084 10.6929 11.5986 10.9579 11.4033 11.1532C11.2079 11.3486 10.943 11.4583 10.6667 11.4583H6.50002V43.75H31.5V11.4583H27.3334C27.0571 11.4583 26.7921 11.3486 26.5968 11.1532C26.4014 10.9579 26.2917 10.6929 26.2917 10.4167C26.2917 10.1404 26.4014 9.87545 26.5968 9.6801C26.7921 9.48475 27.0571 9.375 27.3334 9.375H32.5417C32.818 9.375 33.0829 9.48475 33.2783 9.6801C33.4736 9.87545 33.5834 10.1404 33.5834 10.4167V44.7917C33.5834 45.0679 33.4736 45.3329 33.2783 45.5282C33.0829 45.7236 32.818 45.8333 32.5417 45.8333Z" fill="#7DA05D"/>
<path d="M34.625 49.9999H3.375C2.5462 49.9999 1.75134 49.6707 1.16529 49.0846C0.57924 48.4986 0.25 47.7037 0.25 46.8749V8.33325C0.25 7.50445 0.57924 6.70959 1.16529 6.12354C1.75134 5.53749 2.5462 5.20825 3.375 5.20825H10.6667C10.9429 5.20825 11.2079 5.318 11.4032 5.51335C11.5986 5.7087 11.7083 5.97365 11.7083 6.24992C11.7083 6.52619 11.5986 6.79114 11.4032 6.98649C11.2079 7.18184 10.9429 7.29159 10.6667 7.29159H3.375C3.09873 7.29159 2.83378 7.40133 2.63843 7.59668C2.44308 7.79203 2.33333 8.05698 2.33333 8.33325V46.8749C2.33333 47.1512 2.44308 47.4161 2.63843 47.6115C2.83378 47.8068 3.09873 47.9166 3.375 47.9166H34.625C34.9013 47.9166 35.1662 47.8068 35.3616 47.6115C35.5569 47.4161 35.6667 47.1512 35.6667 46.8749V8.33325C35.6667 8.05698 35.5569 7.79203 35.3616 7.59668C35.1662 7.40133 34.9013 7.29159 34.625 7.29159H27.3333C27.0571 7.29159 26.7921 7.18184 26.5968 6.98649C26.4014 6.79114 26.2917 6.52619 26.2917 6.24992C26.2917 5.97365 26.4014 5.7087 26.5968 5.51335C26.7921 5.318 27.0571 5.20825 27.3333 5.20825H34.625C35.4538 5.20825 36.2487 5.53749 36.8347 6.12354C37.4208 6.70959 37.75 7.50445 37.75 8.33325V46.8749C37.75 47.7037 37.4208 48.4986 36.8347 49.0846C36.2487 49.6707 35.4538 49.9999 34.625 49.9999Z" fill="#7DA05D"/>
<path d="M27.3333 4.16667H23.1667C23.1667 3.0616 22.7277 2.00179 21.9463 1.22039C21.1649 0.438987 20.1051 0 19 0C17.8949 0 16.8351 0.438987 16.0537 1.22039C15.2723 2.00179 14.8333 3.0616 14.8333 4.16667H10.6667C10.3904 4.16667 10.1254 4.27641 9.9301 4.47176C9.73475 4.66711 9.625 4.93207 9.625 5.20833V11.4583C9.625 11.7346 9.73475 11.9996 9.9301 12.1949C10.1254 12.3903 10.3904 12.5 10.6667 12.5H27.3333C27.6096 12.5 27.8746 12.3903 28.0699 12.1949C28.2653 11.9996 28.375 11.7346 28.375 11.4583V5.20833C28.375 4.93207 28.2653 4.66711 28.0699 4.47176C27.8746 4.27641 27.6096 4.16667 27.3333 4.16667ZM19 6.25C18.588 6.25 18.1852 6.12781 17.8426 5.89889C17.5 5.66998 17.2329 5.3446 17.0753 4.96392C16.9176 4.58324 16.8763 4.16436 16.9567 3.76023C17.0371 3.3561 17.2355 2.98489 17.5269 2.69353C17.8182 2.40217 18.1894 2.20375 18.5936 2.12336C18.9977 2.04298 19.4166 2.08423 19.7973 2.24192C20.1779 2.3996 20.5033 2.66663 20.7322 3.00923C20.9611 3.35183 21.0833 3.75462 21.0833 4.16667C21.0833 4.7192 20.8638 5.2491 20.4731 5.63981C20.0824 6.03051 19.5525 6.25 19 6.25Z" fill="#5D8834"/>
<path d="M8.58331 16.6667H14.8333V22.9167H8.58331V16.6667ZM23.1666 16.6667H29.4166V22.9167H23.1666V16.6667ZM8.58331 33.3334H14.8333V39.5834H8.58331V33.3334ZM23.1666 33.3334H29.4166V39.5834H23.1666V33.3334Z" fill="#DCE775"/>
<path d="M15.875 20.8335H20.0417C20.0405 21.0404 20.1009 21.2429 20.2153 21.4153C20.3296 21.5878 20.4928 21.7222 20.6839 21.8015C20.8749 21.8809 21.0853 21.9015 21.2882 21.8608C21.4911 21.8201 21.6772 21.7199 21.8229 21.573C22.9583 20.4272 22.9792 20.448 23.0833 20.1876C23.1631 19.9979 23.1849 19.7888 23.146 19.5868C23.107 19.3847 23.0091 19.1987 22.8646 19.0522L21.8229 18.0105C21.6772 17.8636 21.4911 17.7634 21.2882 17.7227C21.0853 17.682 20.8749 17.7027 20.6839 17.782C20.4928 17.8614 20.3296 17.9958 20.2153 18.1682C20.1009 18.3406 20.0405 18.5432 20.0417 18.7501H15.875C15.5987 18.7501 15.3338 18.8599 15.1384 19.0552C14.9431 19.2506 14.8333 19.5155 14.8333 19.7918C14.8333 20.0681 14.9431 20.333 15.1384 20.5284C15.3338 20.7237 15.5987 20.8335 15.875 20.8335ZM23.0833 36.0626C22.9792 35.7918 22.9167 35.7814 21.8229 34.6772C21.6772 34.5303 21.4911 34.4301 21.2882 34.3894C21.0853 34.3487 20.8749 34.3694 20.6839 34.4487C20.4928 34.528 20.3296 34.6625 20.2153 34.8349C20.1009 35.0073 20.0405 35.2099 20.0417 35.4168H15.875C15.5987 35.4168 15.3338 35.5265 15.1384 35.7219C14.9431 35.9172 14.8333 36.1822 14.8333 36.4585C14.8333 36.7347 14.9431 36.9997 15.1384 37.195C15.3338 37.3904 15.5987 37.5001 15.875 37.5001H20.0417C20.0417 37.7764 20.1514 38.0413 20.3468 38.2367C20.5421 38.432 20.8071 38.5418 21.0833 38.5418C21.6354 38.5418 21.7812 38.271 22.8646 37.198C23.0091 37.0516 23.107 36.8655 23.146 36.6635C23.1849 36.4614 23.1631 36.2523 23.0833 36.0626ZM21.5417 25.573C21.6564 25.4965 21.7547 25.398 21.8311 25.2832C21.9074 25.1684 21.9602 25.0396 21.9864 24.9042C22.0125 24.7689 22.0116 24.6297 21.9836 24.4947C21.9555 24.3597 21.901 24.2316 21.8231 24.1179C21.7452 24.0041 21.6455 23.907 21.5297 23.832C21.414 23.7571 21.2846 23.7059 21.1489 23.6814C21.0132 23.6569 20.874 23.6595 20.7394 23.6892C20.6048 23.7189 20.4774 23.775 20.3646 23.8543L13.4271 28.6147C13.3148 28.4371 13.1514 28.2975 12.9584 28.2144C12.7653 28.1314 12.5517 28.1086 12.3455 28.1492C12.1393 28.1897 11.9502 28.2917 11.803 28.4417C11.6558 28.5917 11.5575 28.7828 11.5208 28.9897L11.2708 30.448C11.2431 30.5996 11.2493 30.7555 11.289 30.9044C11.3288 31.0533 11.4011 31.1916 11.5008 31.3091C11.6004 31.4267 11.7249 31.5207 11.8653 31.5844C12.0056 31.648 12.1584 31.6797 12.3125 31.6772C12.8044 31.7833 13.3017 31.8633 13.8021 31.9168C13.9873 31.9153 14.1688 31.8645 14.3278 31.7695C14.4869 31.6745 14.6177 31.5388 14.7069 31.3765C14.796 31.2141 14.8403 31.0309 14.835 30.8457C14.8298 30.6605 14.7753 30.4801 14.6771 30.323L21.5417 25.573Z" fill="#7DA05D"/>
</svg>
