<svg width="50" height="50" viewBox="0 0 50 50" fill="none" xmlns="http://www.w3.org/2000/svg">
<g clip-path="url(#clip0_10_4894)">
<path d="M32.5354 25.075C42.5615 30.5552 45.1198 15.9261 50 11.4219C42.3177 11.1084 28.3 14.1188 32.5354 25.075ZM0 0.14378C5.58333 8.17399 6.83333 28.3157 23.2135 23.0927C31.2635 7.04378 11.4094 -1.21039 0 0.14378Z" fill="#7DA05D"/>
<path d="M44.2875 13.9749C44.1813 13.7971 44.009 13.6686 43.8083 13.6176C43.6075 13.5667 43.3948 13.5974 43.2167 13.7031C35.7256 18.1241 30.018 25.0272 27.0833 33.2156C24.2 16.7156 14.9219 7.66868 7.39583 2.92181C7.22082 2.8113 7.00907 2.77485 6.80718 2.82046C6.60528 2.86607 6.42978 2.99002 6.31927 3.16504C6.20876 3.34005 6.17231 3.5518 6.21792 3.75369C6.26353 3.95559 6.38748 4.13109 6.5625 4.2416C14.2958 9.12077 23.95 18.7208 26.0198 36.7531V36.7593C26.0283 36.7986 26.0405 36.8369 26.0562 36.8739C26.0685 36.9308 26.0874 36.986 26.1125 37.0385C26.1309 37.067 26.1518 37.0938 26.175 37.1187C26.2096 37.1707 26.2506 37.2183 26.2969 37.2603C26.324 37.2822 26.3583 37.2968 26.3885 37.3166C26.4405 37.3513 26.4965 37.3796 26.5552 37.401C26.5677 37.401 26.5771 37.4145 26.5885 37.4176C26.6541 37.4354 26.7217 37.4445 26.7896 37.4447C26.8188 37.4445 26.848 37.4428 26.8771 37.4395C26.899 37.4395 26.9156 37.4239 26.9365 37.4197C26.9992 37.4084 27.0601 37.3887 27.1177 37.3614C27.1482 37.3473 27.1778 37.3313 27.2062 37.3135C27.2581 37.2793 27.3056 37.2391 27.3479 37.1937C27.3704 37.1728 27.3916 37.1505 27.4115 37.127C27.4552 37.0673 27.4903 37.0017 27.5156 36.9322C27.5229 36.9124 27.5365 36.8958 27.5427 36.8749V36.8676C29.9314 27.7007 35.8545 19.8535 44.0156 15.0437C44.1038 14.9915 44.1808 14.9224 44.2423 14.8404C44.3037 14.7584 44.3483 14.6651 44.3736 14.5658C44.3988 14.4665 44.4042 14.3632 44.3895 14.2618C44.3747 14.1604 44.34 14.0629 44.2875 13.9749Z" fill="#5D8834"/>
<path d="M39.499 37.728H14.0542L16.7969 49.9999H36.7563L39.499 37.728Z" fill="#DCE775"/>
<path d="M38.4166 33.5417H15.1375C14.3086 33.5417 13.5138 33.871 12.9277 34.457C12.3417 35.0431 12.0125 35.8379 12.0125 36.6667V37.7272H41.5416V36.6667C41.5416 35.8379 41.2124 35.0431 40.6263 34.457C40.0403 33.871 39.2454 33.5417 38.4166 33.5417Z" fill="#E3EC91"/>
</g>
<defs>
<clipPath id="clip0_10_4894">
<rect width="50" height="50" fill="white"/>
</clipPath>
</defs>
</svg>
