<svg width="50" height="50" viewBox="0 0 50 50" fill="none" xmlns="http://www.w3.org/2000/svg">
<path d="M38.5874 48.8846C38.7672 48.2472 38.8652 47.5939 38.8652 46.9087C38.8652 42.8932 35.5153 39.6266 31.3974 39.6266H31.3648C29.649 36.5353 26.2991 34.4319 22.4427 34.4319C17.3606 34.4319 13.1611 38.0809 12.4257 42.8295C12.1969 42.7976 11.9518 42.7817 11.7067 42.7817C8.47123 42.7817 5.85669 45.3312 5.85669 48.4863C5.85669 48.6137 5.85669 48.7571 5.87303 48.8846H38.5874Z" fill="#DCE775"/>
<path d="M20.972 42.7817C21.2171 42.7817 21.4459 42.7976 21.691 42.8295C22.1812 39.6266 24.2402 36.9336 27.0835 35.5154C25.6945 34.8143 24.1258 34.4319 22.459 34.4319C17.377 34.4319 13.1774 38.0809 12.4421 42.8295C12.2133 42.7976 11.9682 42.7817 11.7231 42.7817C8.48758 42.7817 5.87305 45.3312 5.87305 48.4863C5.87305 48.6137 5.87305 48.7571 5.88939 48.8846H15.122C15.1056 48.7571 15.1056 48.6137 15.1056 48.4863C15.122 45.3312 17.7365 42.7817 20.972 42.7817Z" fill="#7DA05D"/>
<path d="M38.5874 50H5.90568C5.30107 50 4.81085 49.5538 4.76182 48.9642C4.74548 48.789 4.74548 48.6296 4.74548 48.4862C4.74548 44.8053 7.76854 41.7936 11.5106 41.6821C12.0662 39.4991 13.3081 37.5072 15.0729 36.0094C17.1155 34.2725 19.7464 33.3164 22.459 33.3164C26.3808 33.3164 30.0084 35.2923 32.051 38.527C36.4958 38.8457 40.0254 42.4788 40.0254 46.9087C40.0254 47.6735 39.911 48.4543 39.6986 49.1873C39.5515 49.6654 39.1103 50 38.5874 50ZM7.08222 47.7691H37.656C37.705 47.4823 37.7213 47.1955 37.7213 46.9087C37.7213 43.5146 34.8943 40.742 31.4137 40.742H31.3647C30.9399 40.742 30.564 40.5189 30.3516 40.1524C28.7829 37.316 25.7435 35.5473 22.4426 35.5473C18.0306 35.5473 14.2068 38.7501 13.5532 43.0047C13.4552 43.5943 12.8996 44.0245 12.2786 43.9448C12.0825 43.9289 11.8864 43.913 11.7067 43.913C9.38628 43.897 7.44172 45.5702 7.08222 47.7691Z" fill="#5D8834"/>
<path d="M42.3784 20.5528C42.3784 20.5528 42.3948 20.5528 42.3784 20.5528C44.5845 18.4495 46.3493 13.5575 46.4637 9.52605C46.6271 3.7577 48.8167 1.31969 48.8167 1.31969C48.8167 1.31969 35.4499 -0.321578 27.3775 5.70173C27.3612 5.71766 27.3285 5.7336 27.3122 5.74953C27.2305 5.81327 27.1651 5.86107 27.0834 5.92481C26.7566 6.17977 26.4298 6.46659 26.1193 6.76935C21.9524 10.9283 22.0177 17.589 26.2664 21.6523C30.515 25.7157 37.3618 25.6519 41.5287 21.5089C41.8392 21.2062 42.117 20.8875 42.3784 20.5528Z" fill="#DCE775"/>
<path d="M42.3785 20.5526C42.3785 20.5526 42.3948 20.5526 42.3785 20.5526C44.5845 18.4492 46.3493 13.5573 46.4637 9.52581C46.6271 3.75746 48.8168 1.31946 48.8168 1.31946C48.8168 1.31946 47.2317 1.12824 44.8296 1.1123C44.1596 2.27554 43.1629 4.63387 43.0485 8.45819C42.9341 12.4897 41.1693 17.3816 38.9633 19.469C38.7018 19.7877 38.424 20.1064 38.1299 20.4092C35.6134 22.9109 32.1491 23.9308 28.8483 23.4527C32.9498 25.5402 38.1299 24.8709 41.5451 21.4768C41.8392 21.2059 42.117 20.8872 42.3785 20.5526Z" fill="#7DA05D"/>
<path d="M33.8323 25.7793C30.8092 25.7793 27.8025 24.6798 25.4821 22.4649C23.2107 20.2818 21.9362 17.3817 21.9035 14.2585C21.8708 11.1513 23.08 8.2193 25.3187 5.98845C25.6292 5.68569 25.956 5.38293 26.3155 5.11204C26.3318 5.09611 26.3482 5.08017 26.3809 5.06424C26.4462 5.01643 26.4953 4.96863 26.5606 4.92083L26.6423 4.85709C26.6587 4.84115 26.675 4.82522 26.7077 4.80928C30.221 2.18006 35.0579 0.618465 41.055 0.140424C45.4833 -0.210138 48.8495 0.204163 48.9966 0.220098C49.4215 0.267902 49.7646 0.538791 49.928 0.937158C50.0751 1.31959 49.9934 1.76576 49.7156 2.06852C49.6993 2.08445 47.7874 4.36311 47.6403 9.57375C47.5259 13.9877 45.6467 19.0071 43.261 21.3176C42.9832 21.6682 42.689 22.0028 42.3949 22.2896C40.0255 24.6001 36.9207 25.7793 33.8323 25.7793ZM27.8352 6.75331L27.7862 6.80112C27.4757 7.05607 27.1979 7.29509 26.9365 7.55005C25.139 9.35066 24.1585 11.7249 24.1749 14.2426C24.1912 16.7603 25.237 19.1186 27.0672 20.8714C28.9464 22.6561 31.3812 23.5644 33.816 23.5644C36.3161 23.5644 38.8326 22.6242 40.7118 20.744C40.9733 20.489 41.2184 20.2022 41.4635 19.8994C41.4962 19.8516 41.5288 19.8197 41.5779 19.7719L41.6105 19.7401C43.5551 17.8757 45.2219 13.3025 45.3199 9.51001C45.418 6.08406 46.2023 3.72572 46.905 2.2916C43.0812 2.10039 33.963 2.16413 28.064 6.57803L27.9333 6.67364C27.9006 6.70551 27.8679 6.72144 27.8352 6.75331Z" fill="#5D8834"/>
<path d="M26.2664 22.7678C26.1194 22.7678 25.9559 22.7359 25.8089 22.6722C25.2369 22.4172 24.9755 21.7639 25.2206 21.2062C28.8646 13.1592 39.9764 6.27538 40.4503 5.98856C40.9895 5.65393 41.6922 5.81327 42.019 6.33912C42.3622 6.86496 42.1988 7.55015 41.6595 7.88478C41.6268 7.90072 38.8489 9.60572 35.6951 12.2349C31.5772 15.6609 28.6849 19.0709 27.2959 22.1144C27.1325 22.5287 26.7076 22.7678 26.2664 22.7678Z" fill="#5D8834"/>
<path d="M29.4365 17.7163H29.3385C28.7012 17.6685 28.2436 17.1267 28.2927 16.5053L28.9626 9.07972C29.0117 8.45827 29.5672 8.0121 30.2045 8.0599C30.8418 8.10771 31.2994 8.64949 31.2503 9.27094L30.5804 16.6965C30.515 17.2701 30.0248 17.7163 29.4365 17.7163ZM40.1234 13.9398C40.0417 13.9398 39.96 13.9239 39.8783 13.9079L34.4695 12.7766C33.8485 12.6491 33.4564 12.0595 33.5871 11.454C33.7178 10.8485 34.3224 10.466 34.9434 10.5935L40.3522 11.7249C40.9732 11.8524 41.3653 12.4419 41.2346 13.0475C41.1366 13.5892 40.6627 13.9398 40.1234 13.9398Z" fill="#5D8834"/>
<path d="M38.2115 21.4609L37.1167 20.2818C37.2638 20.1543 37.4108 20.0109 37.5579 19.8675C37.8194 19.5966 38.0808 19.3097 38.3423 18.9911L39.6332 19.9631C39.3391 20.3296 39.0449 20.6642 38.7344 20.9829C38.5547 21.1582 38.3913 21.3175 38.2115 21.4609ZM40.4175 19.0867L39.1103 18.1306C39.6168 17.4613 40.1071 16.6168 40.5483 15.6448L42.0516 16.2822C41.5614 17.3657 41.0058 18.3059 40.4175 19.0867Z" fill="white"/>
<path d="M5.84035 26.1938C5.82401 26.1938 5.82401 26.1938 5.84035 26.1938C4.23895 24.68 2.96436 21.1266 2.88266 18.1946C2.76827 14.0197 1.16687 12.235 1.16687 12.235C1.16687 12.235 10.8733 11.0399 16.7234 15.406C16.7397 15.422 16.756 15.4379 16.7724 15.4379C16.8214 15.4857 16.8868 15.5176 16.9358 15.5654C17.1809 15.7566 17.4097 15.9637 17.6221 16.1709C20.6452 19.1825 20.5961 24.0107 17.5077 26.9746C14.4193 29.9225 9.46802 29.8747 6.42862 26.8631C6.21619 26.6559 6.0201 26.4328 5.84035 26.1938Z" fill="#DCE775"/>
<path d="M5.84035 26.1937C5.82401 26.1937 5.82401 26.1937 5.84035 26.1937C4.23895 24.6799 2.96436 21.1265 2.88266 18.1945C2.76827 14.0196 1.16687 12.235 1.16687 12.235C1.16687 12.235 2.31073 12.0916 4.0592 12.0916C4.53309 12.9361 5.26842 14.6411 5.35013 17.4137C5.43183 20.3298 6.70642 23.8832 8.30782 25.397C8.48757 25.636 8.7 25.8591 8.91243 26.0822C10.7263 27.8987 13.2591 28.6317 15.6449 28.2971C12.6708 29.8109 8.91243 29.3169 6.44497 26.863C6.21619 26.6558 6.0201 26.4328 5.84035 26.1937Z" fill="#7DA05D"/>
<path d="M12.0335 30.2889C9.69679 30.2889 7.37639 29.4125 5.62792 27.6597C5.39915 27.4366 5.18672 27.1976 4.97429 26.9426C3.19313 25.2058 1.80416 21.493 1.72246 18.2423C1.62441 14.5933 0.300804 12.9998 0.284464 12.9839C0.00666909 12.6811 -0.0750356 12.2509 0.072032 11.8525C0.2191 11.4701 0.578598 11.1992 1.00346 11.1514C1.41198 11.1036 11.2492 9.95629 17.4097 14.5455C17.426 14.5455 17.4424 14.5614 17.4587 14.5773L17.475 14.5933L17.5241 14.6251C17.5731 14.657 17.6221 14.6889 17.6548 14.7367L17.7038 14.7845C17.9653 14.9916 18.2267 15.2147 18.4391 15.4378C21.9034 18.8797 21.838 24.4409 18.3084 27.8191C16.5763 29.4603 14.3049 30.2889 12.0335 30.2889ZM6.60837 25.381C6.67374 25.4289 6.70642 25.4767 6.7391 25.5245C6.90251 25.7475 7.08226 25.9388 7.26201 26.114C9.84386 28.6795 14.0761 28.7273 16.7234 26.2097C19.3542 23.692 19.4033 19.5649 16.8214 16.9835C16.6417 16.8082 16.4456 16.6329 16.2331 16.4576C16.2168 16.4417 16.2004 16.4417 16.2004 16.4258C16.1841 16.4098 16.1678 16.3939 16.1351 16.378L16.0534 16.3142L16.037 16.2983C12.0499 13.3185 5.98742 13.1273 3.04607 13.2388C3.50361 14.3224 3.96115 15.9318 4.02652 18.1786C4.09188 20.8397 5.25208 24.0585 6.60837 25.381Z" fill="#5D8834"/>
<path d="M17.5076 28.1059C17.0664 28.1059 16.6416 27.851 16.4618 27.4367C14.0597 22.1304 6.2488 17.3022 6.1671 17.2544C5.62785 16.9198 5.46444 16.2346 5.8076 15.7087C6.15076 15.1829 6.85341 15.0236 7.39266 15.3582C7.47437 15.406 9.53331 16.6648 11.9191 18.6567C15.1872 21.3656 17.4096 24.0107 18.5535 26.5284C18.8149 27.0861 18.5535 27.7554 17.9652 27.9944C17.8181 28.074 17.6711 28.1059 17.5076 28.1059Z" fill="#5D8834"/>
<path d="M15.22 24.4408C14.6317 24.4408 14.1415 24.0106 14.0761 23.421L13.5859 18.0351C13.5369 17.4136 13.9944 16.8878 14.6317 16.8241C15.269 16.7763 15.8083 17.2224 15.8736 17.8439L16.3639 23.2298C16.4129 23.8513 15.9553 24.3771 15.318 24.4408H15.22ZM7.47443 21.7001C6.95152 21.7001 6.47764 21.3495 6.36325 20.8237C6.23253 20.2181 6.62471 19.6286 7.24566 19.5011L11.1675 18.6884C11.7884 18.5609 12.393 18.9434 12.5238 19.5489C12.6545 20.1544 12.2623 20.744 11.6413 20.8715L7.71954 21.6841C7.6215 21.7001 7.53979 21.7001 7.47443 21.7001Z" fill="#5D8834"/>
<path d="M22.5734 35.5471C22.0669 35.5471 21.6093 35.2125 21.4622 34.7185C20.4655 31.0217 17.4424 27.7869 17.4097 27.7551C16.9849 27.3089 17.0175 26.5918 17.4751 26.1775C17.9326 25.7632 18.668 25.7951 19.0928 26.2413C19.2399 26.3847 22.5244 29.9063 23.6683 34.1449C23.8317 34.7345 23.4558 35.3559 22.8512 35.4993C22.7532 35.5312 22.6551 35.5471 22.5734 35.5471Z" fill="#5D8834"/>
<path d="M23.6029 35.6108C23.0637 35.6108 22.5898 35.2443 22.4754 34.7184C20.5309 25.1895 25.3187 20.9987 25.5148 20.8234C25.9887 20.425 26.7077 20.4728 27.1326 20.9349C27.5411 21.397 27.4921 22.0982 27.0345 22.4965C26.8548 22.6559 23.0637 26.1137 24.7305 34.2722C24.8612 34.8778 24.4527 35.4673 23.8317 35.5789C23.75 35.5948 23.6683 35.6108 23.6029 35.6108Z" fill="#5D8834"/>
</svg>
