<svg width="50" height="50" viewBox="0 0 50 50" fill="none" xmlns="http://www.w3.org/2000/svg">
<path d="M45.1214 9.39213C45.6692 3.42695 45.9073 3.01226 45.3238 2.4806C44.133 1.41729 43.216 2.77833 39.8578 5.77687C39.7475 5.87601 39.6165 5.95479 39.4721 6.00871C39.3278 6.06264 39.173 6.09064 39.0165 6.09114C38.86 6.09163 38.705 6.0646 38.5602 6.01159C38.4154 5.95858 38.2838 5.88063 38.1727 5.78219C38.0617 5.68374 37.9735 5.56673 37.9131 5.43785C37.8527 5.30896 37.8213 5.17071 37.8208 5.03099C37.8202 4.89128 37.8505 4.75284 37.9098 4.62357C37.9692 4.4943 38.0565 4.37674 38.1668 4.2776L41.8703 0.9707C42.2034 0.663611 42.6022 0.419436 43.0431 0.252683C43.4839 0.0859295 43.9578 0 44.4366 0C44.9154 0 45.3893 0.0859295 45.8302 0.252683C46.271 0.419436 46.6698 0.663611 47.0029 0.9707C48.5868 2.3849 48.039 3.57581 47.4912 9.56226C47.4488 9.83061 47.2933 10.0744 47.0564 10.2438C46.8195 10.4132 46.5191 10.4954 46.2165 10.4737C45.914 10.452 45.6322 10.328 45.4286 10.1269C45.2251 9.92591 45.1152 9.66307 45.1214 9.39213ZM29.3068 11.7208C28.6399 11.7208 28.6161 11.54 25.9248 9.222C25.3704 8.72908 24.9302 8.14349 24.6292 7.49867C24.3283 6.85384 24.1726 6.16241 24.1709 5.46384C24.1693 4.76527 24.3217 4.07325 24.6196 3.42729C24.9174 2.78133 25.3549 2.19408 25.9069 1.69907C26.459 1.20406 27.1148 0.810983 27.837 0.542284C28.5591 0.273585 29.3335 0.134525 30.1159 0.133044C30.8982 0.131563 31.6733 0.26769 32.3967 0.533652C33.1201 0.799614 33.7778 1.1902 34.3322 1.68312L37.0235 4.0543C37.2204 4.25646 37.3245 4.51751 37.3151 4.78524C37.3057 5.05298 37.1834 5.30769 36.9728 5.49844C36.7622 5.68919 36.4787 5.80193 36.179 5.81412C35.8793 5.82632 35.5855 5.73706 35.3563 5.56421L32.6531 3.21429C29.2949 0.205116 24.2457 4.71356 27.592 7.70146L30.1285 9.89188C30.2991 10.0387 30.4168 10.2277 30.4665 10.4346C30.5162 10.6415 30.4956 10.857 30.4073 11.0534C30.3191 11.2498 30.1672 11.4182 29.9712 11.5371C29.7751 11.656 29.5438 11.7199 29.3068 11.7208Z" fill="#DCE775"/>
<path d="M9.32434 36.7513C3.76305 37.8146 -0.273951 34.1888 0.904995 29.2231C6.6211 28.1704 10.4914 31.9239 9.32434 36.7513Z" fill="#5D8834"/>
<path d="M9.52699 34.7628C8.5966 34.9062 7.64243 34.8672 6.73056 34.6487C5.8187 34.4302 4.97094 34.0372 4.246 33.4971C3.52106 32.9571 2.93627 32.2827 2.53215 31.5208C2.12802 30.7589 1.9142 29.9277 1.90552 29.0847C2.83591 28.9414 3.79008 28.9803 4.70194 29.1988C5.61381 29.4174 6.46157 29.8103 7.18651 30.3504C7.91145 30.8905 8.49623 31.5648 8.90036 32.3267C9.30449 33.0886 9.5183 33.9198 9.52699 34.7628Z" fill="#7DA05D"/>
<path d="M9.72933 38.8775C8.53848 34.0713 12.4088 30.2859 18.1487 31.3492C19.3276 36.3149 15.2906 39.9195 9.72933 38.8775Z" fill="#5D8834"/>
<path d="M17.1483 31.2112C17.1396 32.0542 16.9258 32.8854 16.5217 33.6473C16.1176 34.4092 15.5328 35.0835 14.8078 35.6236C14.0829 36.1637 13.2351 36.5566 12.3233 36.7752C11.4114 36.9937 10.4572 37.0326 9.52686 36.8893C9.53554 36.0463 9.74935 35.2151 10.1535 34.4532C10.5576 33.6913 11.1424 33.0169 11.8673 32.4769C12.5923 31.9368 13.44 31.5438 14.3519 31.3253C15.2638 31.1068 16.2179 31.0678 17.1483 31.2112Z" fill="#7DA05D"/>
<path d="M19.0537 50H0C0.758763 48.2972 2.07236 46.837 3.77083 45.8082C5.4693 44.7795 7.47445 44.2295 9.52684 44.2295C11.5792 44.2295 13.5844 44.7795 15.2829 45.8082C16.9813 46.837 18.2949 48.2972 19.0537 50Z" fill="#A87E6B"/>
<path d="M17.7317 47.8732H7.14499C6.75903 47.8755 6.38066 47.7775 6.05601 47.5911C5.73135 47.4047 5.47446 47.138 5.31665 46.8235C5.15884 46.509 5.10694 46.1603 5.16727 45.8199C5.2276 45.4795 5.39756 45.1621 5.65642 44.9065C6.88141 44.4486 8.19881 44.2206 9.5267 44.2366C11.1182 44.2241 12.6906 44.5469 14.1163 45.1788C15.5419 45.8106 16.7805 46.7337 17.7317 47.8732Z" fill="#BE927C"/>
<path d="M8.33594 44.6837V35.1138C8.33594 34.8318 8.4614 34.5614 8.68473 34.362C8.90806 34.1626 9.21096 34.0505 9.52679 34.0505C9.84263 34.0505 10.1455 34.1626 10.3689 34.362C10.5922 34.5614 10.7176 34.8318 10.7176 35.1138V44.6837C10.7176 44.9657 10.5922 45.2361 10.3689 45.4355C10.1455 45.6349 9.84263 45.747 9.52679 45.747C9.21096 45.747 8.90806 45.6349 8.68473 45.4355C8.4614 45.2361 8.33594 44.9657 8.33594 44.6837Z" fill="#BE927C"/>
<path d="M48.9679 15.687L41.5846 22.2795C41.2132 22.6113 40.7643 22.8659 40.2701 23.0251C39.7759 23.1843 39.2484 23.2442 38.7253 23.2006C38.2021 23.1569 37.6962 23.0107 37.2436 22.7725C36.791 22.5343 36.4028 22.2098 36.1067 21.8223L27.592 10.7107L36.0114 3.21436C49.599 11.5082 48.9917 10.9978 49.5276 11.8591C49.9156 12.4641 50.0709 13.1659 49.9699 13.8572C49.8688 14.5485 49.5168 15.1912 48.9679 15.687Z" fill="#9EB885"/>
<path d="M49.9207 12.7097L48.3846 14.0814C47.3287 15.0232 46.0535 15.7457 44.6495 16.1975C43.2454 16.6494 41.7472 16.8194 40.2612 16.6955C38.7753 16.5717 37.3381 16.157 36.052 15.481C34.7659 14.8049 33.6624 13.8842 32.8201 12.7842L29.7715 8.78611L36.0116 3.21436C49.623 11.5082 49.4801 11.0829 49.9207 12.7097Z" fill="#DCE775"/>
<path d="M7.14497 26.6071C5.56113 26.6071 5.95412 25.161 5.95412 21.2905C5.95412 19.5985 6.7069 17.9757 8.04688 16.7793C9.38685 15.5828 11.2042 14.9106 13.0992 14.9106H14.2901C14.6059 14.9106 14.9088 15.0227 15.1322 15.2221C15.3555 15.4215 15.481 15.6919 15.481 15.974C15.481 16.256 15.3555 16.5264 15.1322 16.7258C14.9088 16.9252 14.6059 17.0373 14.2901 17.0373H13.0992C11.8359 17.0373 10.6243 17.4854 9.731 18.283C8.83768 19.0807 8.33583 20.1625 8.33583 21.2905C8.33583 25.0972 8.75263 26.6071 7.14497 26.6071Z" fill="#B2E5FB"/>
<path d="M11.9086 28.7336C11.5928 28.7336 11.2899 28.6216 11.0666 28.4222C10.8432 28.2228 10.7178 27.9523 10.7178 27.6703V22.3538C10.7178 19.1638 15.4812 18.1856 15.4812 20.2271C15.4812 21.8753 13.0995 20.7056 13.0995 22.3538C13.0995 27.3726 13.5044 28.7336 11.9086 28.7336Z" fill="#B2E5FB"/>
<path d="M34.8802 20.2275H23.8171L19.0537 22.3541V13.8477L23.8171 15.9743H31.6291C33.5941 18.5262 32.8438 17.548 34.8802 20.2275Z" fill="#FFCC66"/>
<path d="M33.2607 18.1008C26.056 18.1008 24.9247 18.154 25.0081 18.1008C24.5066 18.326 23.9489 18.4328 23.3881 18.4109C22.8273 18.389 22.2821 18.2393 21.8045 17.976C21.3269 17.7127 20.9328 17.3445 20.6597 16.9066C20.3867 16.4687 20.2438 15.9756 20.2446 15.4744V14.4111C24.7461 16.4208 22.2572 16.0061 31.6292 16.0061L33.2607 18.1008Z" fill="#DCE775"/>
</svg>
