<svg width="42" height="42" viewBox="0 0 42 42" fill="none" xmlns="http://www.w3.org/2000/svg">
<path d="M22.3081 26.7832C22.1831 25.7524 22.0504 24.7217 21.9254 23.6909C21.4803 20.1222 21.0195 16.5536 20.6056 12.9771C20.426 11.4465 19.5279 10.9702 18.3643 11.0014C16.5603 11.0561 14.7485 11.017 12.9367 11.017C11.7185 11.017 11 11.7355 11 12.9536C11 15.0464 11 17.1392 11 19.2398C11 21.3716 11 23.5035 11 25.6431C11 26.7363 11.7419 27.486 12.8352 27.4938C15.7872 27.5016 18.747 27.4938 21.6989 27.4938C22.105 27.486 22.3549 27.1971 22.3081 26.7832ZM19.6841 17.9201H18.7548V23.1677C18.6923 23.1052 18.6376 23.0427 18.5986 22.9725C18.5595 22.9022 18.5283 22.8241 18.4971 22.746C18.4736 22.6679 18.4424 22.5898 18.4268 22.5039C18.4034 22.418 18.3799 22.3399 18.3565 22.2619L18.2862 22.0588C18.2159 21.9651 18.1535 21.8714 18.0988 21.7699C18.0441 21.6762 17.9816 21.5825 17.927 21.4888C17.8645 21.3951 17.802 21.3092 17.7317 21.2233C17.6615 21.1374 17.5834 21.0593 17.4897 20.9812C17.4194 21.1139 17.3413 21.2233 17.2476 21.3248C17.1538 21.4263 17.0445 21.5044 16.9274 21.5747C16.8102 21.6449 16.6853 21.6918 16.5603 21.723C16.4276 21.7543 16.2948 21.7699 16.162 21.7699C15.9356 21.7699 15.7169 21.723 15.5061 21.6215C15.303 21.52 15.1078 21.3873 14.936 21.2155C14.7563 21.0437 14.5923 20.8406 14.444 20.6064C14.2956 20.3721 14.1628 20.1222 14.0379 19.8567C13.9129 19.5912 13.8036 19.3179 13.7099 19.0368C13.6162 18.7557 13.5303 18.4745 13.4678 18.1934L13.788 18.3262C13.8348 18.5214 13.8973 18.7244 13.9754 18.9275C14.0535 19.1305 14.1394 19.3257 14.2487 19.5131C14.3503 19.7005 14.4752 19.8801 14.6002 20.0519C14.7329 20.2159 14.8813 20.3643 15.0453 20.4892C15.2093 20.6142 15.3889 20.7157 15.592 20.786C15.7872 20.8563 16.0059 20.8953 16.2401 20.8953C16.3885 20.8953 16.5135 20.8719 16.6228 20.8328C16.7321 20.7938 16.818 20.7313 16.8883 20.661C16.9586 20.5829 17.0133 20.497 17.0445 20.3955C17.0836 20.294 17.0992 20.1847 17.0992 20.0597C17.0992 19.9348 17.0836 19.8099 17.0601 19.6927C17.0289 19.5756 16.9898 19.4663 16.943 19.3804C16.8961 19.2867 16.8415 19.2164 16.779 19.1617C16.7165 19.1071 16.654 19.0758 16.5838 19.0758C16.4822 19.2398 16.3573 19.3648 16.2167 19.4506C16.0761 19.5365 15.9278 19.5834 15.7794 19.5834C15.6935 19.5834 15.5998 19.5678 15.5217 19.5365C15.4358 19.5053 15.3655 19.4585 15.2952 19.396C15.2327 19.3335 15.1781 19.271 15.139 19.1851C15.1 19.1071 15.0765 19.0212 15.0765 18.9275C15.0765 18.8416 15.0922 18.7557 15.1234 18.6698C15.1546 18.5839 15.1937 18.5058 15.2483 18.4355C15.303 18.3652 15.3733 18.3106 15.4514 18.2715C15.5295 18.2325 15.6154 18.209 15.7169 18.209C15.998 18.209 16.2558 18.2637 16.49 18.3652C16.7243 18.4667 16.9274 18.6151 17.107 18.7947C17.2788 18.9821 17.4194 19.193 17.5131 19.4506C17.6068 19.7005 17.6615 19.9817 17.6615 20.2706L18.255 21.3014V17.9279H13.1866V17.4125H19.6841V17.9201Z" fill="#3D96FF"/>
<path d="M25.5256 22.4102C26.1191 21.9885 26.6501 21.6918 27.1265 21.5122V23.8627C26.7751 23.2067 26.244 22.7148 25.5256 22.4102Z" fill="#3D96FF"/>
<path d="M28.8993 14.5623C26.736 14.5623 24.5806 14.5623 22.4174 14.5623C22.2768 14.5623 22.1441 14.5701 21.9879 14.5779C21.9957 14.6872 21.9957 14.7497 22.0035 14.8122C22.2144 16.5145 22.4252 18.2168 22.6361 19.9192C22.886 21.9417 23.1046 23.972 23.4092 25.9867C23.5576 26.994 23.3936 27.8296 22.6361 28.5402C22.3627 28.7979 22.1285 29.1024 21.8864 29.3836C21.4334 29.8989 20.9883 30.4143 20.4885 31H20.9492C23.6279 31 26.3143 31 28.993 31C30.2971 31 31 30.305 31 29.0087C31 24.8934 31 20.786 31 16.6707C30.9922 15.2495 30.3128 14.5701 28.8993 14.5623ZM27.6654 20.8719C28.1027 20.8719 28.4854 21.0749 28.8134 21.4731C29.1179 21.848 29.2663 22.2618 29.2663 22.7148C29.2663 22.9334 29.196 23.1208 29.0554 23.2926C28.9149 23.4644 28.7431 23.5425 28.5322 23.5425C28.3838 23.5425 28.2433 23.4878 28.1261 23.3785C28.009 23.2692 27.9465 23.1442 27.9465 22.9881C27.9465 22.8475 27.9934 22.7226 28.0949 22.6289C28.1964 22.5352 28.3135 22.4883 28.4619 22.4883C28.6494 22.4883 28.7977 22.5664 28.8993 22.7148L28.9227 22.6367C28.9227 22.3556 28.8055 22.0979 28.5713 21.848C28.3135 21.5903 28.0558 21.4731 27.7903 21.4888L27.5638 21.5044V25.0809C27.4701 25.0809 27.4155 25.0418 27.392 24.9715C27.2905 24.6514 27.0797 24.3 26.7517 23.9095C26.2831 23.3629 25.7755 23.0584 25.221 23.0037L24.6041 22.2384C25.3616 21.6137 26.1972 21.1686 27.1109 20.8953V20.5439H24.3854L23.9324 20.0832H29.1648L29.6255 20.5439H27.5716V20.8562H27.6654V20.8719Z" fill="#3D96FF"/>
<path d="M20.9024 28.6808C20.2698 29.3758 19.6841 30.0161 19.114 30.6642C18.95 30.8516 18.8251 30.7579 18.6845 30.6564C18.0051 30.1723 17.9036 29.4538 17.8723 28.6808C18.8719 28.6808 19.8481 28.6808 20.9024 28.6808Z" fill="#3D96FF"/>
</svg>
