<svg id="Layer_1" enable-background="new 0 0 66 66" viewBox="0 0 66 66" xmlns="http://www.w3.org/2000/svg"><g><g><g><g><path d="m43.35 62.88h-32.49c-2.21 0-4-1.79-4-4v-40.37c0-2.21 1.79-4 4-4h32.49c2.21 0 4 1.79 4 4v40.37c0 2.21-1.79 4-4 4z" fill="#fff"/></g><g><path d="m43.61 63.82h-33.02c-2.57 0-4.67-2.09-4.67-4.67v-40.9c0-2.57 2.09-4.67 4.67-4.67h33.02c2.57 0 4.67 2.09 4.67 4.67v40.9c0 2.57-2.09 4.67-4.67 4.67zm-33.02-48.38c-1.54 0-2.8 1.26-2.8 2.8v40.9c0 1.54 1.26 2.8 2.8 2.8h33.02c1.54 0 2.8-1.26 2.8-2.8v-40.9c0-1.54-1.26-2.8-2.8-2.8z" fill="#363d3d"/></g></g><g><g><path d="m38.35 11.07v6.87c0 .52-.42.93-.93.93h-20.64c-.52 0-.93-.42-.93-.93v-6.87c0-.52.42-.93.93-.93h2.42c.47 0 .87-.35.92-.81.4-3.49 3.37-6.21 6.98-6.21 3.6 0 6.57 2.72 6.98 6.21.05.46.45.81.92.81h2.42c.52 0 .93.42.93.93z" fill="#616974"/></g><g><path d="m37.42 19.81h-20.64c-1.03 0-1.87-.84-1.87-1.87v-6.87c0-1.03.84-1.87 1.87-1.87h2.42c.45-4 3.85-7.02 7.9-7.02s7.44 3.03 7.9 7.04l2.41-.02c1.03 0 1.87.84 1.87 1.87v6.87c.01 1.04-.83 1.87-1.86 1.87zm-20.64-8.74v6.87h20.64v-6.87h-2.42c-.95 0-1.74-.7-1.85-1.64-.35-3.06-2.95-5.38-6.05-5.38s-5.69 2.32-6.05 5.39c-.11.93-.9 1.64-1.85 1.64h-2.42z" fill="#363d3d"/></g></g><g><g><g><path d="m17.75 32.28h-4.07c-1.1 0-2-.9-2-2v-4.07c0-1.1.9-2 2-2h4.07c1.1 0 2 .9 2 2v4.07c0 1.11-.89 2-2 2z" fill="#00a5e0"/></g><g><path d="m17.89 33.21h-4.33c-1.54 0-2.8-1.26-2.8-2.8v-4.33c0-1.54 1.26-2.8 2.8-2.8h4.33c1.54 0 2.8 1.26 2.8 2.8v4.33c0 1.55-1.26 2.8-2.8 2.8zm-4.34-8.06c-.52 0-.93.42-.93.93v4.33c0 .51.42.93.93.93h4.33c.52 0 .93-.42.93-.93v-4.33c0-.51-.42-.93-.93-.93z" fill="#363d3d"/></g></g><g><g><path d="m17.75 45.03h-4.07c-1.1 0-2-.9-2-2v-4.07c0-1.1.9-2 2-2h4.07c1.1 0 2 .9 2 2v4.07c0 1.1-.89 2-2 2z" fill="#ffa431"/></g><g><path d="m17.89 45.96h-4.33c-1.54 0-2.8-1.26-2.8-2.8v-4.33c0-1.54 1.26-2.8 2.8-2.8h4.33c1.54 0 2.8 1.26 2.8 2.8v4.33c0 1.54-1.26 2.8-2.8 2.8zm-4.34-8.07c-.52 0-.93.42-.93.93v4.33c0 .51.42.93.93.93h4.33c.52 0 .93-.42.93-.93v-4.33c0-.51-.42-.93-.93-.93z" fill="#363d3d"/></g></g><g><g><path d="m17.75 57.77h-4.07c-1.1 0-2-.9-2-2v-4.07c0-1.1.9-2 2-2h4.07c1.1 0 2 .9 2 2v4.07c0 1.11-.89 2-2 2z" fill="#a7d930"/></g><g><path d="m17.89 58.71h-4.33c-1.54 0-2.8-1.26-2.8-2.8v-4.33c0-1.54 1.26-2.8 2.8-2.8h4.33c1.54 0 2.8 1.26 2.8 2.8v4.33c0 1.54-1.26 2.8-2.8 2.8zm-4.34-8.07c-.52 0-.93.42-.93.93v4.33c0 .51.42.93.93.93h4.33c.52 0 .93-.42.93-.93v-4.33c0-.51-.42-.93-.93-.93z" fill="#363d3d"/></g></g></g><g><g><g><path d="m40.06 27.37h-15.52c-.52 0-.93-.42-.93-.93 0-.52.42-.93.93-.93h15.52c.52 0 .93.42.93.93.01.52-.41.93-.93.93z" fill="#363d3d"/></g></g><g><g><path d="m32.95 30.99h-8.4c-.52 0-.93-.42-.93-.93 0-.52.42-.93.93-.93h8.4c.52 0 .93.42.93.93s-.42.93-.93.93z" fill="#363d3d"/></g></g></g><g><g><g><path d="m36.25 40.12h-11.71c-.52 0-.93-.42-.93-.93s.42-.93.93-.93h11.71c.52 0 .93.42.93.93s-.41.93-.93.93z" fill="#363d3d"/></g></g><g><g><path d="m31.14 43.73h-6.59c-.52 0-.93-.42-.93-.93 0-.52.42-.93.93-.93h6.59c.52 0 .93.42.93.93 0 .52-.42.93-.93.93z" fill="#363d3d"/></g></g></g><g><g><g><path d="m31.14 52.87h-6.59c-.52 0-.93-.42-.93-.93s.41-.94.92-.94h6.59c.52 0 .93.42.93.93s-.41.94-.92.94z" fill="#363d3d"/></g></g><g><g><path d="m28.75 56.48h-4.2c-.52 0-.93-.42-.93-.93 0-.52.42-.93.93-.93h4.2c.52 0 .93.42.93.93s-.42.93-.93.93z" fill="#363d3d"/></g></g></g></g><g><g><path d="m59.14 52.55v-3.13c0-.43-.3-.81-.72-.91l-1.01-.23c-.24-.22-.43-.4-.67-.62-.12-.33-.25-.66-.4-.98.01-.32.03-.58.04-.91l.54-.87c.23-.37.17-.85-.13-1.15l-2.21-2.21c-.31-.31-.79-.36-1.15-.13l-.87.54c-.32.01-.58.03-.91.04-.47-.22-.96-.41-1.47-.56-.01-.02-.2-.87-.35-1.52-.1-.42-.47-.72-.91-.72h-3.13c-.43 0-.81.3-.91.72l-.23 1.01c-.22.24-.4.43-.62.67-.5.17-.98.39-1.44.64-.02-.01-.76-.47-1.32-.82-.37-.23-.85-.17-1.15.13l-2.21 2.21c-.31.31-.36.79-.13 1.15l.54.87c.01.32.03.58.04.91-.15.32-.28.64-.4.98-.24.22-.43.4-.67.62l-1.01.23c-.42.1-.72.48-.72.91v3.13c0 .43.3.81.72.91l1.01.23c.24.22.43.4.67.62.12.33.25.66.4.98-.01.32-.03.58-.04.91l-.54.87c-.23.37-.17.85.13 1.15l2.21 2.21c.31.31.79.36 1.15.13l.87-.54c.32-.01.58-.03.91-.04.32.15.64.28.98.4.22.24.4.43.62.67l.21.9c.12.54.5.83.94.83h3.13c.43 0 .81-.3.91-.72l.23-1.01c.22-.24.4-.43.62-.67.33-.12.66-.25.98-.4.32.01.58.03.91.04l.87.54c.37.23.85.17 1.15-.13l2.21-2.21c.31-.31.36-.79.13-1.15l-.54-.87c-.01-.32-.03-.58-.04-.91.15-.32.28-.64.4-.98.24-.22.43-.4.67-.62l1.01-.23c.4-.1.7-.48.7-.91z" fill="#edf4f7"/></g><g><path d="m48.91 63.71h-3.13c-.89 0-1.63-.63-1.84-1.56l-.15-.66-.29-.32c-.21-.08-.42-.17-.63-.26l-.44.02-.66.41c-.74.46-1.69.35-2.31-.26l-2.21-2.21c-.62-.62-.73-1.56-.27-2.31l.41-.67.02-.44c-.09-.21-.18-.42-.26-.63l-.32-.3-.77-.18c-.85-.2-1.44-.95-1.44-1.82v-3.13c0-.87.59-1.62 1.44-1.82l.77-.18.32-.3c.08-.21.17-.42.26-.63l-.02-.44-.41-.66c-.46-.74-.35-1.69.27-2.31l2.21-2.21c.62-.62 1.56-.73 2.31-.27l.87.54c.28-.13.57-.26.86-.37l.3-.32.18-.76c.2-.85.95-1.44 1.82-1.44h3.13c.87 0 1.62.59 1.82 1.44l.23 1c.3.1.59.22.87.35l.44-.02.66-.41c.74-.46 1.69-.35 2.31.27l2.21 2.21c.62.62.73 1.57.26 2.31l-.41.66-.02.44c.09.21.18.42.26.63l.32.3.77.18c.85.2 1.44.95 1.44 1.82v3.13c0 .87-.59 1.62-1.44 1.82l-.77.18-.32.3c-.08.21-.17.42-.26.63l.02.44.41.66c.46.74.35 1.69-.26 2.31l-2.21 2.21c-.62.62-1.57.73-2.31.26l-.66-.41-.44-.02c-.21.09-.42.18-.63.26l-.3.32-.18.77c-.21.86-.96 1.45-1.83 1.45zm-5.86-4.66c.14 0 .28.03.4.09.29.14.58.26.88.36.14.05.27.14.38.25l.62.67c.11.12.19.26.22.42l.21.9c.02.09.05.12.05.12l3.1-.01.23-1.01c.04-.16.11-.3.22-.42l.62-.67c.1-.11.23-.2.38-.25.3-.11.6-.23.88-.36.14-.06.29-.09.44-.09l.91.04c.16.01.32.06.45.14l.87.54 2.21-2.21-.54-.87c-.09-.14-.13-.29-.14-.45l-.04-.91c-.01-.15.02-.3.09-.44.14-.29.26-.58.36-.88.05-.14.14-.27.25-.38l.68-.63c.12-.11.26-.19.42-.22l1-.23v-3.13l-1-.23c-.16-.04-.3-.11-.42-.22l-.67-.62c-.11-.1-.2-.23-.25-.38-.11-.3-.23-.6-.36-.89-.06-.14-.09-.29-.09-.44l.04-.91c.01-.16.05-.32.14-.45l.54-.87-2.21-2.21-.87.54c-.14.09-.29.13-.45.14l-.91.04c-.15.01-.3-.02-.44-.09-.42-.2-.87-.37-1.33-.51-.32-.09-.57-.35-.65-.67l-.35-1.53h-3.13l-.23 1c-.04.16-.11.3-.22.42l-.62.67c-.1.11-.23.2-.38.25-.45.16-.89.35-1.29.57-.29.16-.66.16-.95-.03l-1.31-.82-2.21 2.21.54.87c.08.14.13.29.14.45l.04.87c.01.15-.02.34-.09.48-.14.29-.26.58-.36.88-.05.14-.14.28-.25.38l-.67.62c-.12.11-.26.19-.42.22l-1.01.23v3.13l1 .23c.16.04.3.11.42.22l.67.62c.11.1.2.23.25.38.1.3.23.6.36.88.06.14.1.29.09.44l-.04.91c-.01.16-.06.32-.14.45l-.54.87 2.21 2.21.87-.54c.14-.08.29-.13.45-.14l.91-.04c.01.04.02.04.04.04z" fill="#363d3d"/></g></g><g><g><circle cx="47.35" cy="50.98" fill="#fff" r="5.77"/></g><g><path d="m47.35 57.69c-3.7 0-6.7-3.01-6.7-6.7s3.01-6.7 6.7-6.7 6.7 3.01 6.7 6.7-3.01 6.7-6.7 6.7zm0-11.54c-2.67 0-4.83 2.17-4.83 4.84s2.17 4.84 4.83 4.84 4.84-2.17 4.84-4.84-2.18-4.84-4.84-4.84z" fill="#363d3d"/></g></g></g></svg>