<svg width="42" height="42" viewBox="0 0 42 42" fill="none" xmlns="http://www.w3.org/2000/svg">
<path d="M17.2866 18.2218C17.0836 18.6121 16.8571 18.9868 16.5916 19.3303C16.4822 19.4708 16.412 19.4708 16.3026 19.3303C16.0371 18.979 15.8106 18.6121 15.6154 18.2218C15.5373 18.0657 15.592 17.9877 15.7716 17.9877C16.0059 17.9877 16.2323 17.9877 16.4666 17.9877C16.6931 17.9877 16.9196 17.9877 17.146 17.9877C17.3178 17.9877 17.3647 18.0657 17.2866 18.2218Z" fill="#3D96FF"/>
<path d="M22.3081 26.777C22.1831 25.7467 22.0504 24.7163 21.9254 23.6859C21.4803 20.1186 21.0195 16.5514 20.6056 12.9763C20.426 11.4464 19.5279 10.9702 18.3643 11.0014C16.5603 11.0561 14.7485 11.017 12.9367 11.017C11.7185 11.017 11 11.7352 11 12.9607C11 15.0527 11 17.1446 11 19.2444C11 21.3754 11 23.5064 11 25.6452C11 26.738 11.7419 27.4874 12.8352 27.4952C15.7872 27.503 18.747 27.4952 21.6989 27.4952C22.105 27.4874 22.3549 27.1907 22.3081 26.777ZM19.1999 18.0189C19.1999 18.1984 19.1609 18.2452 18.9813 18.2452C18.7392 18.2452 18.4971 18.2452 18.255 18.2452C18.1769 18.2452 18.1378 18.2609 18.1066 18.3389C17.8645 18.8619 17.5756 19.3537 17.2241 19.8064C17.1773 19.8689 17.1617 19.9079 17.2319 19.9625C17.6146 20.2904 18.0363 20.548 18.5283 20.6729C18.7157 20.7197 18.7314 20.7509 18.6923 20.9305C18.6533 21.1178 18.6064 21.3129 18.5674 21.5081C18.5205 21.7267 18.4893 21.7501 18.2706 21.6876C17.6146 21.5159 17.0445 21.1881 16.5447 20.7431C16.4666 20.6729 16.4276 20.6807 16.3495 20.7431C15.8497 21.1881 15.2796 21.5081 14.6314 21.6798C14.3971 21.7423 14.3737 21.7267 14.319 21.4847C14.28 21.2895 14.2487 21.1022 14.1941 20.9148C14.1472 20.7665 14.2097 20.7119 14.3424 20.6807C14.8344 20.5636 15.2562 20.306 15.6466 19.986C15.7247 19.9157 15.7247 19.8767 15.6622 19.7986C15.3186 19.3537 15.0375 18.8619 14.7954 18.3545C14.7563 18.2687 14.7095 18.2531 14.6236 18.2531C14.3815 18.2609 14.1394 18.2531 13.8973 18.2531C13.7567 18.2531 13.6943 18.1906 13.6943 18.0501C13.6943 17.8315 13.6943 17.6052 13.6943 17.3866C13.6943 17.2539 13.7567 17.1915 13.8895 17.1915C14.2097 17.1915 14.5377 17.1915 14.8579 17.1915C15.1702 17.1915 15.4826 17.1837 15.795 17.1915C15.8965 17.1915 15.9356 17.1759 15.9278 17.0588C15.92 16.9183 15.9278 16.7778 15.92 16.6372C15.92 16.5202 15.9668 16.4655 16.0761 16.4655C16.3182 16.4655 16.5603 16.4655 16.8024 16.4655C16.9039 16.4655 16.9586 16.5124 16.9586 16.6294C16.9586 16.7621 16.9664 16.9026 16.9586 17.0353C16.9508 17.1602 16.982 17.1993 17.1148 17.1915C17.7317 17.1837 18.3487 17.1915 18.9578 17.1915C19.1609 17.1915 19.1921 17.2305 19.1921 17.4334C19.1999 17.6286 19.1999 17.8237 19.1999 18.0189Z" fill="#3D96FF"/>
<path d="M28.8993 14.5687C26.736 14.5687 24.5806 14.5687 22.4174 14.5687C22.2768 14.5687 22.1441 14.5843 21.9879 14.5843C21.9957 14.6936 21.9957 14.756 22.0035 14.8185C22.2144 16.5202 22.4252 18.2218 22.6361 19.9235C22.886 21.9452 23.1046 23.9747 23.4092 25.9886C23.5576 26.9956 23.3936 27.8308 22.6361 28.5412C22.3628 28.7988 22.1285 29.1032 21.8864 29.3842C21.4334 29.8994 20.9883 30.4146 20.4885 31H20.9492C23.6279 31 26.3143 31 28.993 31C30.2972 31 31 30.3053 31 29.0095C31 24.8958 31 20.79 31 16.6763C30.9922 15.2556 30.3128 14.5687 28.8993 14.5687ZM26.1347 24.4119C25.9473 24.4821 25.7677 24.4041 25.7052 24.2245C25.6427 24.0528 25.7286 23.8889 25.9082 23.8108C26.5642 23.561 27.1578 23.2098 27.6497 22.7024C27.8996 22.4448 28.1183 22.1638 28.2979 21.8516C28.3136 21.8281 28.337 21.8047 28.3292 21.7579C27.2905 21.7579 26.2519 21.7579 25.221 21.7579C25.1663 21.7579 25.1039 21.7657 25.0492 21.7423C24.9086 21.6876 24.8227 21.5549 24.8383 21.3988C24.854 21.2505 24.9789 21.1334 25.1351 21.1178C25.1742 21.11 25.2132 21.1178 25.2522 21.1178C26.3456 21.1178 27.4389 21.1178 28.5244 21.1178C28.6103 21.1178 28.6572 21.0944 28.6884 21.0085C28.8134 20.626 28.8993 20.2436 28.9461 19.8455C28.9617 19.744 28.9383 19.7128 28.829 19.7128C27.5873 19.7206 26.3456 19.7128 25.1039 19.7128C25.0414 19.7128 24.9789 19.7128 24.9242 19.6893C24.7837 19.6347 24.6978 19.4864 24.7212 19.3303C24.7446 19.1898 24.8774 19.0727 25.0258 19.0649C25.1039 19.0649 25.182 19.0649 25.2522 19.0649H29.2351C29.485 19.0649 29.6099 19.182 29.6021 19.4317C29.5396 21.4535 28.5088 23.5376 26.1347 24.4119Z" fill="#3D96FF"/>
<path d="M20.9024 28.6817C20.2698 29.3764 19.6841 30.0165 19.114 30.6643C18.95 30.8517 18.8251 30.758 18.6845 30.6565C18.0051 30.1726 17.9036 29.4544 17.8723 28.6817C18.8719 28.6817 19.8481 28.6817 20.9024 28.6817Z" fill="#3D96FF"/>
</svg>
