<svg width="42" height="42" viewBox="0 0 42 42" fill="none" xmlns="http://www.w3.org/2000/svg">
<path d="M26.3924 21.1725H26.7751C27.5716 21.1725 27.9777 20.8446 27.9777 20.3841C27.9777 19.8377 27.517 19.6269 26.8376 19.6269C26.6345 19.6269 26.4861 19.6347 26.369 19.6425C26.2519 19.6503 26.1581 19.7518 26.1581 19.8767V20.9383C26.1581 21.071 26.2597 21.1725 26.3924 21.1725Z" fill="#3D96FF"/>
<path d="M26.7517 21.9452H26.3846C26.2597 21.9452 26.1503 22.0467 26.1503 22.1794V23.5376C26.1503 23.6625 26.244 23.764 26.369 23.7718C26.4861 23.7796 26.6189 23.7796 26.7829 23.7796C27.4779 23.7796 28.1339 23.561 28.1339 22.8507C28.1417 22.195 27.5248 21.9452 26.7517 21.9452Z" fill="#3D96FF"/>
<path d="M28.8993 14.5687C26.736 14.5687 24.5806 14.5687 22.4174 14.5687C22.2768 14.5687 22.1441 14.5843 21.9879 14.5843C21.9957 14.6936 21.9957 14.756 22.0035 14.8185C22.2144 16.5202 22.4252 18.2218 22.6361 19.9235C22.886 21.9452 23.1046 23.9747 23.4092 25.9886C23.5576 26.9956 23.3936 27.8308 22.6361 28.5412C22.3627 28.7987 22.1285 29.1032 21.8864 29.3842C21.4334 29.8994 20.9883 30.4146 20.4885 31H20.9492C23.6279 31 26.3143 31 28.993 31C30.2971 31 31 30.3053 31 29.0095C31 24.8958 31 20.79 31 16.6763C30.9922 15.2556 30.3128 14.5687 28.8993 14.5687ZM28.6884 24.0606C28.2667 24.4041 27.5716 24.5758 26.4627 24.5758C25.9707 24.5758 25.5802 24.5524 25.2991 24.5211C25.182 24.5055 25.0882 24.4119 25.0882 24.287V19.1663C25.0882 19.0493 25.1741 18.9556 25.2913 18.94C25.6583 18.8853 26.1972 18.8463 26.7204 18.8463C27.556 18.8463 28.0246 18.9478 28.4229 19.1898C28.7977 19.3927 29.0633 19.7596 29.0633 20.267C29.0633 20.7743 28.7274 21.2505 28.0949 21.4691V21.4925C28.6728 21.633 29.2741 22.0779 29.2741 22.8897C29.2741 23.3971 29.032 23.7874 28.6884 24.0606Z" fill="#3D96FF"/>
<path d="M20.9024 28.6817C20.2698 29.3764 19.6841 30.0165 19.114 30.6643C18.95 30.8517 18.8251 30.758 18.6845 30.6565C18.0051 30.1726 17.9035 29.4544 17.8723 28.6817C18.8719 28.6817 19.8481 28.6817 20.9024 28.6817Z" fill="#3D96FF"/>
<path d="M22.3081 26.777C22.1831 25.7467 22.0504 24.7163 21.9254 23.6859C21.4803 20.1187 21.0195 16.5514 20.6056 12.9763C20.426 11.4464 19.5279 10.9702 18.3643 11.0014C16.5603 11.0561 14.7485 11.017 12.9367 11.017C11.7185 11.017 11 11.7352 11 12.9607C11 15.0527 11 17.1524 11 19.2444C11 21.3754 11 23.5064 11 25.6452C11 26.738 11.7419 27.4874 12.8352 27.4952C15.7872 27.503 18.747 27.4952 21.6989 27.4952C22.105 27.4874 22.3549 27.1907 22.3081 26.777ZM18.1925 22.1872C17.8411 22.2575 17.5677 22.0779 17.4818 21.6954C17.3647 21.1724 17.2788 20.6494 17.1538 20.1343C17.1304 20.0328 16.9898 19.8923 16.8961 19.8845C16.4276 19.8611 15.959 19.8689 15.4514 19.8689C15.3342 20.4621 15.2483 21.0163 15.1078 21.5549C15.0531 21.7735 14.9125 22.0389 14.7329 22.1404C14.319 22.3823 13.8661 22.0077 13.9442 21.4925C14.0613 20.7509 14.2175 20.0094 14.3659 19.2756C14.5923 18.1438 14.8188 17.0119 15.0453 15.8801C15.1546 15.3415 15.3108 15.1932 15.8575 15.1854C16.1699 15.1776 16.4822 15.1854 16.7946 15.1854C17.1695 15.1932 17.3959 15.3649 17.474 15.7474C17.8567 17.652 18.2472 19.5644 18.622 21.4691C18.7079 21.8281 18.5127 22.1248 18.1925 22.1872Z" fill="#3D96FF"/>
<path d="M16.2792 16.3797C16.2167 16.4187 16.1542 16.4967 16.1386 16.5748C15.9902 17.2617 15.8575 17.9408 15.7091 18.6824H16.8805C16.7321 17.933 16.5994 17.2071 16.4432 16.4889C16.4276 16.4421 16.3026 16.364 16.2792 16.3797Z" fill="#3D96FF"/>
</svg>
