<svg width="42" height="42" viewBox="0 0 42 42" fill="none" xmlns="http://www.w3.org/2000/svg">
<path d="M22.3081 26.777C22.1831 25.7467 22.0504 24.7163 21.9254 23.6859C21.4803 20.1186 21.0195 16.5514 20.6056 12.9763C20.426 11.4464 19.5279 10.9702 18.3643 11.0014C16.5603 11.0561 14.7485 11.017 12.9367 11.017C11.7185 11.017 11 11.7352 11 12.9529C11 15.0449 11 17.1368 11 19.2366C11 21.3676 11 23.4986 11 25.6374C11 26.7302 11.7419 27.4796 12.8352 27.4874C15.7872 27.4952 18.747 27.4874 21.6989 27.4874C22.105 27.4874 22.3549 27.1907 22.3081 26.777ZM19.5201 17.3164C19.2858 17.3085 19.0594 17.3242 18.8251 17.3085C18.6923 17.3007 18.6611 17.3476 18.6689 17.4725C18.6767 18.8697 18.6767 20.2748 18.6845 21.6798C18.6845 21.7501 18.7314 21.8437 18.6533 21.8828C18.583 21.914 18.5205 21.8359 18.458 21.7969C18.2862 21.6876 18.0597 21.6096 17.9738 21.4534C17.8879 21.2973 17.9504 21.0632 17.9504 20.8602C17.9504 20.5558 17.9504 20.2513 17.9504 19.9391C17.9504 19.8923 17.9816 19.8142 17.8801 19.8298C17.5053 19.8845 17.1617 19.783 16.8415 19.5957C16.8337 19.5878 16.818 19.5957 16.7946 19.5957C16.8415 19.7908 16.8961 19.9859 16.8649 20.1889C16.779 20.6885 16.3963 21.0788 15.8731 21.188C15.0375 21.3598 14.4127 21.0241 13.9207 20.384C13.6708 20.064 13.4678 19.7049 13.2647 19.3537C13.2179 19.2678 13.2413 19.2444 13.3116 19.1976C13.5225 19.0727 13.5225 19.0727 13.6396 19.2756C13.8661 19.6581 14.0691 20.0484 14.4127 20.345C14.8969 20.7587 15.6388 20.7275 16.0605 20.2592C16.2323 20.0718 16.3026 19.8454 16.2792 19.5879C16.2479 19.2522 15.9121 19.018 15.5295 19.0571C15.2718 19.0805 15.0375 19.1819 14.811 19.2834C14.7173 19.3225 14.6704 19.3225 14.6236 19.2288C14.5611 19.0961 14.4908 18.9712 14.4049 18.8541C14.319 18.737 14.3737 18.7058 14.4674 18.659C14.7563 18.5263 15.0453 18.4014 15.3733 18.4092C15.4123 18.4092 15.4514 18.4014 15.4904 18.3779C15.7403 18.1984 15.9121 17.972 15.9043 17.6442C15.8965 17.3944 15.7403 17.2227 15.4904 17.1993C15.0219 17.1602 14.608 17.3164 14.2097 17.5349C14.0847 17.6052 14.0301 17.6052 13.9676 17.4725C13.9051 17.3398 13.8192 17.2149 13.7411 17.0822C13.7099 17.0353 13.6865 16.9963 13.7567 16.9573C14.2722 16.6919 14.8032 16.4889 15.3889 16.6216C15.9512 16.7543 16.2245 17.1915 16.3807 17.7144C16.4822 18.0501 16.4979 18.3701 16.2479 18.659C16.2089 18.7058 16.2245 18.7292 16.2558 18.776C16.7087 19.3693 17.4116 19.3225 17.8489 19.0414C17.9192 18.9946 17.9504 18.9478 17.9504 18.8619C17.9582 18.3858 17.9582 17.9018 17.9738 17.4256C17.9738 17.3242 17.9426 17.3007 17.8489 17.3007C17.638 17.3085 17.4194 17.3007 17.2085 17.3007C17.1617 17.3007 17.107 17.3242 17.0836 17.2773C16.9898 17.1056 16.8883 16.9339 16.818 16.7543C16.779 16.6685 16.8805 16.6841 16.9274 16.6841C17.1538 16.6841 17.3803 16.6841 17.6068 16.6841C18.1456 16.6841 18.6767 16.6841 19.2155 16.6841C19.3171 16.6841 19.3717 16.7075 19.4186 16.8012C19.4733 16.9261 19.5435 17.051 19.606 17.168C19.6607 17.2773 19.6451 17.3242 19.5201 17.3164Z" fill="#3D96FF"/>
<path d="M26.9625 22.6243C27.025 22.679 27.0094 22.718 26.9469 22.7648C26.6501 22.9912 26.3534 23.2176 26.0098 23.3815C25.9317 23.4205 25.8536 23.4518 25.7755 23.4674C25.51 23.522 25.2835 23.4283 25.182 23.2176C25.057 22.9522 25.1273 22.5697 25.346 22.3902C25.5334 22.234 25.7442 22.156 25.9239 22.1638C26.3846 22.1638 26.6892 22.3745 26.9625 22.6243Z" fill="#3D96FF"/>
<path d="M28.8993 14.5687C26.736 14.5687 24.5806 14.5687 22.4174 14.5687C22.2768 14.5687 22.1441 14.5843 21.9879 14.5843C21.9957 14.6936 21.9957 14.756 22.0035 14.8185C22.2144 16.5202 22.4252 18.2218 22.6361 19.9235C22.886 21.9452 23.1046 23.9747 23.4092 25.9886C23.5576 26.9956 23.3936 27.8308 22.6361 28.5412C22.3627 28.7988 22.1285 29.1032 21.8864 29.3842C21.4334 29.8994 20.9883 30.4146 20.4885 31H20.9492C23.6279 31 26.3143 31 28.993 31C30.2971 31 31 30.3053 31 29.0095C31 24.8958 31 20.79 31 16.6763C30.9922 15.2556 30.3128 14.5687 28.8993 14.5687ZM30.1019 20.907C29.3444 20.8992 28.5869 20.907 27.8372 20.8992C27.681 20.8992 27.6419 20.9305 27.6497 21.0866C27.6654 21.4535 27.6576 21.8203 27.6576 22.2184C27.7981 22.1326 27.9075 22.0623 28.0246 21.9999C28.5478 21.7032 28.9695 21.7813 29.3444 22.2575C29.7192 22.7336 29.7505 23.2644 29.5318 23.8108C29.4459 24.0294 29.3132 24.2245 29.1804 24.4275C29.1179 24.5212 29.0711 24.5133 28.993 24.4509C28.868 24.3416 28.7431 24.2323 28.6181 24.1309C28.5556 24.0762 28.5556 24.045 28.6025 23.9825C28.829 23.6937 29.032 23.3815 29.1335 23.0224C29.157 22.9288 29.1648 22.8351 29.1648 22.7414C29.157 22.4916 28.9695 22.3433 28.7274 22.3902C28.4541 22.437 28.2433 22.6165 28.009 22.7414C27.7278 22.8975 27.6419 23.1005 27.6576 23.4205C27.6888 23.9357 27.6654 24.4587 27.6654 24.9739C27.6654 25.0129 27.6966 25.0754 27.6341 25.0988C27.5873 25.1222 27.556 25.0754 27.5248 25.0598C27.517 25.0519 27.5092 25.0519 27.5014 25.0441C27.3374 24.9349 27.1109 24.8568 27.025 24.6929C26.9391 24.529 27.0016 24.3026 27.0016 24.0996C27.0016 23.9123 27.0016 23.7171 27.0016 23.5064C26.8844 23.5923 26.7751 23.6625 26.6736 23.7328C26.244 24.0372 25.7833 24.0918 25.3225 23.8186C24.854 23.5454 24.5728 23.1317 24.5884 22.5619C24.5963 22.1794 24.8852 21.8281 25.3147 21.672C25.9004 21.4613 26.3924 21.6486 26.8219 22.0545C26.8844 22.1091 26.9391 22.1716 26.9938 22.234C27.0094 22.2262 27.0172 22.2262 27.0328 22.2184C27.0328 21.8125 27.025 21.4066 27.0328 21.0007C27.0328 20.8758 26.9547 20.9149 26.8922 20.9149C26.08 20.9149 25.2601 20.907 24.4479 20.9149C24.3229 20.9149 24.2526 20.8836 24.2058 20.7743C24.1667 20.6729 24.1199 20.587 24.0652 20.4933C24.0027 20.3841 24.0105 20.345 24.1511 20.345C25.0414 20.345 25.9395 20.345 26.8298 20.345C27.8216 20.345 28.8212 20.345 29.813 20.3372C29.9223 20.3372 29.9848 20.3684 30.0238 20.4699C30.0707 20.5792 30.1332 20.6729 30.18 20.7743C30.2503 20.868 30.2269 20.907 30.1019 20.907Z" fill="#3D96FF"/>
<path d="M20.9024 28.6816C20.2698 29.3764 19.6841 30.0164 19.114 30.6643C18.95 30.8517 18.8251 30.758 18.6845 30.6565C18.0051 30.1726 17.9036 29.4544 17.8723 28.6816C18.8719 28.6816 19.8481 28.6816 20.9024 28.6816Z" fill="#3D96FF"/>
</svg>
