<svg width="17" height="18" viewBox="0 0 17 18" fill="none" xmlns="http://www.w3.org/2000/svg">
<path fill-rule="evenodd" clip-rule="evenodd" d="M7.0526e-08 17.0466C1.09476e-07 16.52 0.447715 16.0931 1 16.0931L16 16.0931C16.5523 16.0931 17 16.52 17 17.0466C17 17.5731 16.5523 18 16 18L1 18C0.447715 18 3.15756e-08 17.5731 7.0526e-08 17.0466Z" fill="#F8F8F8"/>
<path fill-rule="evenodd" clip-rule="evenodd" d="M2.5 14.1863C1.94772 14.1863 1.5 13.7594 1.5 13.2328L1.5 7.5122C1.5 6.98564 1.94772 6.55877 2.5 6.55877C3.05229 6.55877 3.5 6.98564 3.5 7.5122L3.5 13.2328C3.5 13.7594 3.05228 14.1863 2.5 14.1863Z" fill="#F8F8F8"/>
<path fill-rule="evenodd" clip-rule="evenodd" d="M8.5 14.1863C7.94772 14.1863 7.5 13.7594 7.5 13.2328L7.5 7.5122C7.5 6.98564 7.94772 6.55877 8.5 6.55877C9.05228 6.55877 9.5 6.98564 9.5 7.5122V13.2328C9.5 13.7594 9.05228 14.1863 8.5 14.1863Z" fill="#F8F8F8"/>
<path fill-rule="evenodd" clip-rule="evenodd" d="M14.5 14.1863C13.9477 14.1863 13.5 13.7594 13.5 13.2328V7.5122C13.5 6.98564 13.9477 6.55877 14.5 6.55877C15.0523 6.55877 15.5 6.98564 15.5 7.5122V13.2328C15.5 13.7594 15.0523 14.1863 14.5 14.1863Z" fill="#F8F8F8"/>
<path d="M0 3.53514C0 3.06166 0.313166 2.63964 0.781463 2.48206L7.83436 0.10871C8.2651 -0.0362368 8.7349 -0.0362366 9.16564 0.10871L16.2185 2.48206C16.6868 2.63964 17 3.06166 17 3.53514C17 4.15191 16.4756 4.6519 15.8287 4.6519H1.17129C0.524407 4.6519 0 4.15191 0 3.53514Z" fill="#F8F8F8"/>
</svg>
