<svg width="17" height="15" viewBox="0 0 17 15" fill="none" xmlns="http://www.w3.org/2000/svg">
<path d="M16.9963 9.25486C16.9897 8.20647 16.3195 7.25889 15.3043 7.08416C13.7184 6.8019 12.7032 6.95647 11.9136 8.27368C9.77032 6.45244 7.26212 6.45244 5.07243 8.28712C4.54823 7.30593 3.71216 6.92959 2.64385 6.99007C2.49124 6.99679 2.33199 6.99007 2.17937 6.99679C0.905369 7.07072 0.00958453 8.03174 0.00294908 9.32878C-0.00368636 10.4377 0.00294908 11.5465 0.00294908 12.6554C0.00294908 13.5895 0.334721 13.9188 1.27032 13.9188C2.09975 13.9188 2.92918 13.9121 3.75861 13.9256C3.85814 13.9256 4.01739 13.9928 4.0373 14.06C4.243 14.7723 4.74065 15.0008 5.4241 14.9941C7.09623 14.9807 8.76173 14.9874 10.4339 14.9874C10.8851 14.9874 11.3429 14.9941 11.7941 14.9807C12.3449 14.9672 12.7563 14.685 12.9022 14.1877C12.9686 13.9524 13.0814 13.9054 13.2937 13.9054C14.1696 13.9121 15.0389 13.9188 15.9147 13.9054C16.5916 13.8987 16.983 13.482 16.9897 12.8032C17.0029 11.6339 17.0029 10.4444 16.9963 9.25486ZM4.25627 9.61104C3.99085 10.5721 4.02403 11.5398 4.01739 12.5075C4.01739 12.6218 4.01739 12.7293 4.01739 12.8906H1.01817C1.01154 12.7831 1.0049 12.689 1.0049 12.5882C1.0049 11.5129 0.998265 10.4377 1.0049 9.36239C1.0049 8.54921 1.49592 8.03846 2.29218 8.01158C2.52442 8.00486 2.75666 8.00486 2.9889 8.01158C3.87141 8.03846 4.48851 8.75083 4.25627 9.61104ZM11.9866 13.6836C11.9932 13.9524 11.8472 13.9928 11.6282 13.9928C10.5798 13.986 9.53144 13.9928 8.48304 13.9928C7.45455 13.9928 6.42606 13.986 5.39756 13.9995C5.11224 14.0062 5.00607 13.9121 5.01271 13.6164C5.02598 12.7898 5.01271 11.9565 5.01934 11.1299C5.03925 9.32206 6.31989 8.03174 8.10482 8.0183C8.62239 8.01158 9.15322 8.00486 9.65088 8.11238C10.9448 8.3812 11.887 9.50352 11.9534 10.8409C12.0065 11.775 11.9733 12.7293 11.9866 13.6836ZM15.9944 12.8973H13.0084C13.0018 12.7831 12.9885 12.6756 12.9885 12.5748C12.9819 11.5801 13.0217 10.5922 12.7496 9.61104C12.5174 8.75083 13.1345 8.03846 14.0236 8.01158C14.3222 8.00486 14.6208 7.99814 14.9194 8.03174C15.4901 8.09222 15.9745 8.55593 15.9877 9.13389C16.0143 10.3704 15.9944 11.6137 15.9944 12.8973Z" fill="#F8F8F8"/>
<path d="M8.44984 0.000644935C6.8507 0.0409675 5.5767 1.37161 5.61651 2.97108C5.65632 4.59742 6.97014 5.88102 8.54937 5.84742C10.1552 5.8071 11.4225 4.47645 11.3893 2.87699C11.3495 1.25064 10.0357 -0.0329572 8.44984 0.000644935ZM8.50293 4.83935C7.45453 4.83935 6.60519 3.97914 6.61846 2.91059C6.6251 1.85548 7.46116 1.01543 8.49629 1.01543C9.55132 1.01543 10.394 1.87564 10.3874 2.93747C10.3808 3.99258 9.54469 4.83263 8.50293 4.83935Z" fill="#F8F8F8"/>
<path d="M2.69694 2.15788C1.70162 2.131 0.87219 2.93073 0.839013 3.94552C0.805836 4.97375 1.60209 5.82052 2.62395 5.8474C3.6259 5.87428 4.44869 5.07455 4.48187 4.05977C4.51505 3.03154 3.71879 2.17805 2.69694 2.15788ZM2.66376 4.83262C2.20591 4.83262 1.84096 4.47643 1.83433 4.01272C1.82769 3.53557 2.19928 3.15923 2.67039 3.16595C3.12824 3.17267 3.47992 3.54229 3.47992 4.006C3.47992 4.46971 3.1216 4.83262 2.66376 4.83262Z" fill="#F8F8F8"/>
<path d="M14.4018 2.15794C13.3933 2.11762 12.5506 2.92407 12.5174 3.9523C12.4908 4.96708 13.2738 5.80714 14.2758 5.84746C15.291 5.88778 16.1271 5.08133 16.1602 4.0531C16.1934 3.03832 15.4104 2.19827 14.4018 2.15794ZM14.3421 4.83267C13.8843 4.83267 13.526 4.46977 13.5193 4.00606C13.5193 3.52891 13.8909 3.15929 14.362 3.16601C14.8199 3.17273 15.1716 3.54235 15.1649 4.00606C15.1583 4.47649 14.8 4.83267 14.3421 4.83267Z" fill="#F8F8F8"/>
</svg>
