<svg width="17" height="17" viewBox="0 0 17 17" fill="none" xmlns="http://www.w3.org/2000/svg">
<path fill-rule="evenodd" clip-rule="evenodd" d="M9.44444 1C9.44444 0.447715 9.89216 -4.93781e-08 10.4444 0L16 4.96706e-07C16.5523 5.46084e-07 17 0.447715 17 1V4.66667C17 5.21895 16.5523 5.66667 16 5.66667L10.4444 5.66667C9.89216 5.66667 9.44444 5.21895 9.44444 4.66667V1ZM12.2778 1.88889C11.7562 1.88889 11.3333 2.31173 11.3333 2.83333C11.3333 3.35494 11.7562 3.77778 12.2778 3.77778L14.1667 3.77778C14.6883 3.77778 15.1111 3.35494 15.1111 2.83333C15.1111 2.31173 14.6883 1.88889 14.1667 1.88889L12.2778 1.88889ZM0 1C0 0.447716 0.447715 5.29819e-07 1 5.29819e-07H6.55556C7.10784 5.29819e-07 7.55556 0.447715 7.55556 0.999999V8.44445C7.55556 8.99673 7.10784 9.44444 6.55556 9.44444H1C0.447715 9.44444 0 8.99673 0 8.44445V1ZM2.88889 1.88889C2.3366 1.88889 1.88889 2.3366 1.88889 2.88889V6.55556C1.88889 7.10784 2.3366 7.55556 2.88889 7.55556H4.66667C5.21895 7.55556 5.66667 7.10784 5.66667 6.55556V2.88889C5.66667 2.3366 5.21895 1.88889 4.66667 1.88889H2.88889ZM9.44444 8.55556C9.44444 8.00327 9.89216 7.55556 10.4444 7.55556L16 7.55556C16.5523 7.55556 17 8.00327 17 8.55556V16C17 16.5523 16.5523 17 16 17H10.4444C9.89216 17 9.44444 16.5523 9.44444 16V8.55556ZM12.3333 9.44444C11.781 9.44444 11.3333 9.89216 11.3333 10.4444L11.3333 14.1111C11.3333 14.6634 11.781 15.1111 12.3333 15.1111H14.1111C14.6634 15.1111 15.1111 14.6634 15.1111 14.1111V10.4444C15.1111 9.89216 14.6634 9.44444 14.1111 9.44444H12.3333ZM0 12.3333C0 11.781 0.447715 11.3333 1 11.3333H6.55556C7.10784 11.3333 7.55556 11.781 7.55556 12.3333V16C7.55556 16.5523 7.10784 17 6.55556 17H1C0.447715 17 0 16.5523 0 16V12.3333ZM2.83333 13.2222C2.31173 13.2222 1.88889 13.6451 1.88889 14.1667C1.88889 14.6883 2.31173 15.1111 2.83333 15.1111H4.72222C5.24382 15.1111 5.66667 14.6883 5.66667 14.1667C5.66667 13.6451 5.24382 13.2222 4.72222 13.2222H2.83333Z" fill="#F8F8F8"/>
</svg>
