<svg width="17" height="14" viewBox="0 0 17 14" fill="none" xmlns="http://www.w3.org/2000/svg">
<path fill-rule="evenodd" clip-rule="evenodd" d="M0.89475 0C1.3889 0 1.78949 0.417868 1.78949 0.933333V12.1333H16.1053C16.5994 12.1333 17 12.5512 17 13.0667C17 13.5821 16.5994 14 16.1053 14H1.78949C0.801188 14 1.34341e-05 13.1643 1.34341e-05 12.1333V0.933333C1.34341e-05 0.417868 0.400601 0 0.89475 0Z" fill="#F8F8F8"/>
<path d="M11.6316 0C11.1374 0 10.7368 0.417868 10.7368 0.933333C10.7368 1.4488 11.1374 1.86667 11.6316 1.86667H13.4979L11.1842 4.28014L10.2127 3.26674C9.51387 2.53776 8.38084 2.53776 7.68201 3.26674L4.73573 6.3401C4.38632 6.70459 4.38632 7.29555 4.73573 7.66004C5.08515 8.02453 5.65167 8.02453 6.00108 7.66004L8.94736 4.58667L9.91885 5.60007C10.6177 6.32905 11.7507 6.32905 12.4495 5.60007L15.2105 2.72V5.6C15.2105 6.11547 15.6111 6.53333 16.1053 6.53333C16.5994 6.53333 17 6.11547 17 5.6V1.86667C17 0.835735 16.1988 0 15.2105 0H11.6316Z" fill="#F8F8F8"/>
</svg>
