<svg width="17" height="17" viewBox="0 0 17 17" fill="none" xmlns="http://www.w3.org/2000/svg">
<path d="M16.8917 7.08893C16.7909 6.55138 16.4551 6.24901 15.985 6.3498C15.582 6.417 15.3806 6.82016 15.4477 7.32411C15.582 8.09684 15.582 8.86957 15.4477 9.6087C14.7425 13.6739 10.9479 16.2609 6.9183 15.3538C4.13113 14.749 2.31779 12.9684 1.6126 10.2134C0.907409 7.4249 1.71334 5.00593 3.89606 3.09091C5.3736 1.81423 7.11978 1.31028 9.03386 1.41107C9.57115 1.44466 9.87337 1.17589 9.90695 0.73913C9.90695 0.302372 9.60473 0.0335968 9.03386 0C8.36225 0 7.72423 0.0335968 7.05262 0.134387C2.58643 0.907115 -0.502966 5.07312 0.0679001 9.5415C0.638766 13.8419 4.16471 17 9.00028 17C11.183 16.9664 13.4329 15.9249 15.1119 13.8083C16.6902 11.8261 17.2611 9.5751 16.8917 7.08893Z" fill="#F8F8F8"/>
<path d="M13.3397 4.63636C13.9106 4.06522 14.4815 3.52767 15.0188 2.95652C15.1867 2.78854 15.3546 2.62055 15.5896 2.35178C15.5896 2.85573 15.5896 3.1917 15.5896 3.52767C15.5896 3.93083 15.8918 4.2332 16.2948 4.2332C16.6978 4.2332 17 3.96443 17 3.56126C17 2.58696 17 1.64625 17 0.671937C17 0.268775 16.6978 0 16.3284 0C15.3546 0 14.4143 0 13.4405 0C13.0375 0 12.7353 0.302372 12.7353 0.705534C12.7353 1.1087 13.0039 1.37747 13.4405 1.41107C13.7763 1.41107 14.1121 1.41107 14.4815 1.41107C14.4815 1.47826 14.4815 1.47826 14.4815 1.47826C13.7763 2.18379 13.0375 2.92292 12.3323 3.62846C11.9629 3.99802 11.9629 4.40119 12.2316 4.70356C12.5338 5.03953 12.9704 5.00593 13.3397 4.63636Z" fill="#F8F8F8"/>
<path d="M9.53757 7.49209C9.43682 7.59289 9.33608 7.69368 9.26892 7.82806C9.20176 7.96245 9.16818 8.13043 9.16818 8.33202C9.16818 8.76877 9.26892 9.10474 9.47041 9.27273C9.67189 9.47431 9.94053 9.5415 10.3435 9.5415L10.545 9.50791C10.545 9.74308 10.4442 10.0119 10.3099 10.2806C10.1756 10.5494 10.0077 10.7846 9.80621 10.9862C9.60473 11.1877 9.36966 11.3893 9.1346 11.5237C8.89954 11.6581 8.66448 11.7253 8.42941 11.7253C8.12719 11.7253 7.89213 11.6581 7.72423 11.4901C7.55632 11.3557 7.48916 11.1541 7.48916 10.9526V8.4664H8.86596L8.02645 7.59289H7.52274V5.67787C7.48916 5.44269 7.45558 5.20751 7.422 5.00593C7.35484 4.80435 7.28768 4.63636 7.18694 4.46838C7.0862 4.33399 6.95188 4.1996 6.81756 4.13241C6.68323 4.06522 6.51533 3.99802 6.31385 3.99802C6.28027 3.99802 6.21311 3.99802 6.11237 4.03162C6.01163 4.06522 5.87731 4.06522 5.77656 4.13241C5.64224 4.16601 5.5415 4.2332 5.44076 4.3004C5.34002 4.36759 5.30644 4.46838 5.30644 4.56917C5.30644 4.60277 5.30644 4.63636 5.30644 4.66996C5.30644 4.70356 5.34002 4.73715 5.34002 4.80435C5.3736 4.87154 5.40718 4.93874 5.44076 5.00593C5.47434 5.07312 5.5415 5.17391 5.60866 5.3083C5.67582 5.24111 5.81014 5.20751 5.97805 5.20751C6.17953 5.24111 6.34743 5.3083 6.44817 5.37549C6.54891 5.47628 6.61607 5.61067 6.61607 5.81225V7.52569H4.90347L5.74298 8.39921H6.61607V11.3893C6.64965 11.5237 6.75039 11.6917 6.88472 11.8597C7.01904 12.0277 7.15336 12.1621 7.35484 12.2964C7.52274 12.4308 7.72423 12.5316 7.92571 12.6324C8.12719 12.7332 8.29509 12.7668 8.49657 12.7668C8.93312 12.7668 9.36967 12.666 9.80621 12.4644C10.2428 12.2628 10.6121 11.9941 10.9479 11.6917C11.2837 11.3557 11.5524 10.9862 11.7539 10.583C11.9554 10.1462 12.0561 9.74308 12.0561 9.30632C12.0561 9.07115 12.0225 8.83597 11.9554 8.60079C11.8882 8.36561 11.7875 8.13043 11.6531 7.96245C11.5188 7.76087 11.3509 7.62648 11.1494 7.49209C10.9479 7.35771 10.7129 7.32411 10.4442 7.32411C10.3099 7.32411 10.142 7.35771 10.0077 7.3913C9.77263 7.35771 9.63831 7.4249 9.53757 7.49209Z" fill="#F8F8F8"/>
</svg>
