<svg width="17" height="17" viewBox="0 0 17 17" fill="none" xmlns="http://www.w3.org/2000/svg">
<path d="M17.002 4.05549C16.9954 1.7502 15.2548 0.00959618 12.9495 0.00295267C11.468 -0.00369084 9.98646 0.00295267 8.50496 0.00295267C7.01681 0.00295267 5.53531 0.00295267 4.05381 0.00295267C1.74851 0.00959618 0.00791232 1.75684 0.00791232 4.05549C0.00126881 7.02514 0.00126881 9.98815 0.00791232 12.9511C0.0145558 15.2564 1.75515 16.997 4.06045 16.997C6.60492 17.0037 9.14938 16.997 11.6938 16.997C12.79 16.997 13.7201 16.6184 14.4974 15.8477C14.9492 15.396 15.4076 14.9442 15.8593 14.4858C16.63 13.7085 17.0087 12.7784 17.0087 11.6822C17.002 9.14442 17.0087 6.59996 17.002 4.05549ZM15.5072 12.6588C15.381 12.9711 15.2083 13.2501 14.9757 13.4893C14.4841 13.9809 13.9925 14.4725 13.5009 14.9708C13.2551 15.2166 12.9628 15.3893 12.6439 15.5222C12.4977 15.582 12.418 15.562 12.4313 15.376C12.4446 15.0904 12.4313 14.798 12.4313 14.5124C12.4313 14.2599 12.4246 14.0008 12.4313 13.7484C12.4578 13.0109 13.0026 12.4529 13.74 12.433C14.2848 12.4197 14.8229 12.4396 15.3677 12.4263C15.5869 12.4197 15.5737 12.506 15.5072 12.6588ZM15.3544 11.1043C14.6834 11.1043 14.0058 11.0378 13.3348 11.1441C12.0526 11.3501 11.1225 12.4197 11.1026 13.7218C11.0893 14.2865 11.0893 14.8512 11.1026 15.4159C11.1092 15.6086 11.0694 15.6816 10.8568 15.675C8.54482 15.6683 6.23288 15.6816 3.92094 15.6617C2.49923 15.6551 1.34326 14.4725 1.33661 13.0442C1.32333 11.5162 1.33661 9.98815 1.33661 8.46678C1.33661 7.00521 1.33661 5.54364 1.33661 4.08871C1.33661 2.48098 2.4793 1.33165 4.08703 1.33165C7.0301 1.33165 9.97318 1.33165 12.9096 1.33165C14.524 1.33165 15.6667 2.47434 15.6733 4.08207C15.6733 6.31429 15.6667 8.5465 15.68 10.7854C15.68 11.0511 15.6069 11.1043 15.3544 11.1043Z" fill="#F8F8F8"/>
<path d="M12.2851 3.92259C9.76058 3.92259 7.2427 3.92259 4.71816 3.92259C4.22654 3.92259 3.92758 4.1684 3.92094 4.56701C3.9143 4.98555 4.21326 5.25129 4.71816 5.25129C5.98043 5.25129 7.2427 5.25129 8.49832 5.25129C9.75394 5.25129 11.0229 5.25129 12.2785 5.25129C12.7701 5.25129 13.0691 5.00548 13.0757 4.60023C13.0956 4.18169 12.79 3.92259 12.2851 3.92259Z" fill="#F8F8F8"/>
<path d="M12.2851 7.84226C11.0361 7.84226 9.78716 7.84226 8.53818 7.84226C7.26263 7.84226 5.99372 7.84226 4.72481 7.84226C4.2199 7.84226 3.9143 8.10136 3.92759 8.5199C3.93423 8.92515 4.23319 9.17096 4.72481 9.17096C7.24934 9.17096 9.76723 9.17096 12.2918 9.17096C12.79 9.17096 13.1023 8.90522 13.089 8.49333C13.0757 8.08143 12.7767 7.84226 12.2851 7.84226Z" fill="#F8F8F8"/>
<path d="M8.42524 11.7553C7.16297 11.7553 5.90735 11.7486 4.64508 11.7553C4.21326 11.7553 3.92758 12.021 3.92094 12.4063C3.9143 12.8049 4.21326 13.0773 4.65837 13.0773C5.27622 13.084 5.89406 13.0773 6.51855 13.0773C7.16297 13.0773 7.80075 13.0773 8.44517 13.0773C8.877 13.0773 9.16267 12.8049 9.16931 12.4263C9.16931 12.0343 8.877 11.7619 8.42524 11.7553Z" fill="#F8F8F8"/>
</svg>
