<svg width="17" height="19" viewBox="0 0 17 19" fill="none" xmlns="http://www.w3.org/2000/svg">
<path d="M3.15687 1.65883C3.2852 1.73583 3.36219 1.81282 3.46485 1.86415C4.54281 2.48013 5.5951 3.12177 6.69872 3.71208C7.54568 4.17406 7.93067 4.84136 7.93067 5.81665C7.905 8.46021 7.93067 11.0781 7.93067 13.7217C7.93067 13.85 7.93067 14.004 7.93067 14.158C8.93163 14.158 9.88125 14.1836 10.8309 14.158C11.1902 14.158 11.4212 13.85 11.4212 13.465C11.4212 12.7977 11.4212 12.1304 11.4212 11.4631C11.4212 10.9754 11.6778 10.6675 12.0885 10.6931C12.4735 10.6931 12.7045 11.0011 12.7045 11.4631C12.7045 12.1304 12.7045 12.772 12.7045 13.4393C12.6788 14.6456 11.8832 15.4669 10.6769 15.4669C9.77859 15.4669 8.88029 15.4669 7.93067 15.4669C7.93067 15.7749 7.93067 16.0316 7.93067 16.3139C7.905 17.9051 6.3394 18.8291 4.95346 18.0335C3.61885 17.2635 2.3099 16.4935 1.00096 15.7492C0.333653 15.3643 0 14.7739 0 14.004C0 10.1285 0 6.2273 0 2.32613C0 1.14552 0.846965 0.324219 2.02758 0.324219C4.90213 0.324219 7.77667 0.324219 10.6512 0.324219C11.8062 0.324219 12.6531 1.14552 12.6788 2.30047C12.7045 3.0961 12.6788 3.89174 12.6788 4.68737C12.6788 5.14935 12.4221 5.406 12.0372 5.406C11.6522 5.406 11.3955 5.12368 11.3955 4.68737C11.3955 3.9174 11.3955 3.1731 11.3955 2.40313C11.3955 1.88982 11.1389 1.63316 10.6512 1.63316C8.18732 1.63316 5.74909 1.63316 3.2852 1.63316C3.25953 1.6075 3.23386 1.63316 3.15687 1.65883Z" fill="white"/>
<path d="M13.808 7.12578C13.6027 6.94612 13.3717 6.76646 13.1921 6.56114C12.9098 6.25315 12.9098 5.89383 13.1664 5.61151C13.4231 5.35485 13.808 5.35485 14.116 5.63717C14.7063 6.20182 15.271 6.79213 15.8613 7.38243C16.1693 7.69042 16.1693 8.04974 15.8613 8.35773C15.2967 8.92237 14.732 9.51268 14.1417 10.0773C13.8337 10.3853 13.4487 10.3853 13.1664 10.1287C12.9098 9.84633 12.9098 9.48701 13.2177 9.20469C13.4231 8.99937 13.6284 8.84537 13.8337 8.64005C13.808 8.61438 13.808 8.56305 13.7824 8.53739C13.6541 8.53739 13.5514 8.53739 13.4231 8.53739C12.0115 8.53739 10.6255 8.53739 9.21391 8.53739C8.80326 8.53739 8.52094 8.28073 8.49527 7.92141C8.46961 7.61342 8.7006 7.30544 9.03425 7.25411C9.16258 7.22844 9.2909 7.22844 9.41923 7.22844C10.6512 7.22844 11.9088 7.22844 13.1407 7.22844C13.3461 7.22844 13.5514 7.22844 13.7567 7.22844C13.7567 7.20278 13.7824 7.15144 13.808 7.12578Z" fill="white"/>
</svg>
