<svg width="17" height="18" viewBox="0 0 17 18" fill="none" xmlns="http://www.w3.org/2000/svg">
<path fill-rule="evenodd" clip-rule="evenodd" d="M10.9286 4.8C10.9286 6.12548 9.84125 7.2 8.49999 7.2C7.15872 7.2 6.07141 6.12548 6.07141 4.8C6.07141 3.47452 7.15872 2.4 8.49999 2.4C9.84125 2.4 10.9286 3.47452 10.9286 4.8ZM11.1573 8.81863C12.482 7.9614 13.3571 6.48169 13.3571 4.8C13.3571 2.14903 11.1825 0 8.49999 0C5.81746 0 3.64284 2.14903 3.64284 4.8C3.64284 6.4817 4.51797 7.9614 5.84273 8.81863C2.4497 9.92122 0 13.0779 0 16.8C0 17.4627 0.543654 18 1.21429 18C1.88492 18 2.42857 17.4627 2.42857 16.8C2.42857 13.4863 5.14684 10.8 8.5 10.8C11.8532 10.8 14.5714 13.4863 14.5714 16.8C14.5714 17.4627 15.1151 18 15.7857 18C16.4563 18 17 17.4627 17 16.8C17 13.0779 14.5503 9.9212 11.1573 8.81863Z" fill="#F8F8F8"/>
</svg>
