<svg width="17" height="18" viewBox="0 0 17 18" fill="none" xmlns="http://www.w3.org/2000/svg">
<path fill-rule="evenodd" clip-rule="evenodd" d="M8.26538 0.059136C8.41363 -0.0197121 8.59223 -0.0197119 8.74048 0.0591362L16.7405 4.31396C16.9022 4.39995 17.0029 4.56636 17.0029 4.74735V13.2385C17.0029 13.4192 16.9024 13.5854 16.7411 13.6715L8.74109 17.9405C8.59252 18.0198 8.41334 18.0198 8.26477 17.9405L0.264768 13.6715C0.103432 13.5854 0.00292969 13.4192 0.00292969 13.2385V4.74735C0.00292969 4.56636 0.103704 4.39995 0.265381 4.31396L8.26538 0.059136ZM1.65532 12.8959C1.49398 12.8098 1.39348 12.6435 1.39348 12.4628V6.47273C1.39348 6.12016 1.75856 5.88178 2.08822 6.0191L7.39267 8.22864C7.5777 8.30571 7.69793 8.48438 7.69793 8.68227V15.2934C7.69793 15.6666 7.29292 15.9042 6.95977 15.7264L1.65532 12.8959ZM9.08848 15.4105C9.08848 15.7837 9.49349 16.0213 9.82664 15.8436L15.3505 12.8959C15.5119 12.8098 15.6124 12.6435 15.6124 12.4628V6.5346C15.6124 6.18652 15.2558 5.94827 14.9275 6.07699L9.40359 8.24259C9.21333 8.31717 9.08848 8.49849 9.08848 8.7002V15.4105ZM8.26538 1.57564C8.41363 1.49679 8.59223 1.49679 8.74048 1.57564L13.7462 4.23795C14.1197 4.43659 14.0879 4.97435 13.6935 5.12896L8.49236 7.16804C8.43422 7.19083 8.36884 7.19015 8.31123 7.16616L3.35011 5.09963C2.96377 4.9387 2.9382 4.40892 3.3073 4.21261L8.26538 1.57564Z" fill="#F8F8F8"/>
</svg>
