<svg width="18" height="18" viewBox="0 0 18 18" fill="none" xmlns="http://www.w3.org/2000/svg">
<path fill-rule="evenodd" clip-rule="evenodd" d="M0.000244141 0.900002C0.000244141 0.402945 0.403186 0 0.900242 0H3.60024C4.04446 0 4.42223 0.324101 4.48978 0.763149L4.64929 1.8H17.1002C17.3826 1.8 17.6487 1.93256 17.8187 2.15803C17.9888 2.38349 18.0432 2.6757 17.9656 2.94725L16.1656 9.24725C16.0552 9.63362 15.7021 9.9 15.3002 9.9H5.89544L6.17237 11.7H16.2002C16.6973 11.7 17.1002 12.1029 17.1002 12.6C17.1002 13.0971 16.6973 13.5 16.2002 13.5H5.40024C4.95602 13.5 4.57825 13.1759 4.5107 12.7369L3.97405 9.24859C3.95358 9.17722 3.9417 9.1022 3.93961 9.02475L3.00484 2.94871C2.98434 2.87726 2.97245 2.80216 2.97036 2.72463L2.82811 1.8H0.900242C0.403186 1.8 0.000244141 1.39706 0.000244141 0.900002ZM4.92621 3.6L5.61852 8.1H14.6214L15.9071 3.6H4.92621ZM3.60024 16.2C3.60024 15.2059 4.40614 14.4 5.40024 14.4C6.39433 14.4 7.20024 15.2059 7.20024 16.2C7.20024 17.1941 6.39433 18 5.40024 18C4.40614 18 3.60024 17.1941 3.60024 16.2ZM13.5002 16.2C13.5002 15.2059 14.3061 14.4 15.3002 14.4C16.2944 14.4 17.1002 15.2059 17.1002 16.2C17.1002 17.1941 16.2944 18 15.3002 18C14.3061 18 13.5002 17.1941 13.5002 16.2Z" fill="#F8F8F8"/>
</svg>
