<svg width="18" height="18" viewBox="0 0 18 18" fill="none" xmlns="http://www.w3.org/2000/svg">
<path d="M14.8364 11.6461C14.8364 9.69475 14.8364 7.71244 14.8364 5.7611C14.8364 5.42039 14.9294 5.2965 15.301 5.2965C15.9825 5.32747 16.6949 5.32747 17.3763 5.2965C17.748 5.2965 17.8409 5.38942 17.8409 5.7611C17.8409 8.51776 17.8409 11.3054 17.8409 14.062C17.8409 15.239 17.8409 16.3851 17.8409 17.5621C17.8409 17.8718 17.748 17.9957 17.4073 17.9647C16.6949 17.9337 15.9515 17.9337 15.2391 17.9647C14.9603 17.9647 14.8674 17.8718 14.8674 17.593C14.8364 15.6107 14.8364 13.6284 14.8364 11.6461Z" fill="white"/>
<path d="M16.416 0C16.8496 0.0309736 17.3142 0.278763 17.562 0.836288C17.8098 1.36284 17.7788 1.92037 17.4072 2.38497C17.0355 2.84958 16.5089 3.06639 15.9204 2.91152C15.6726 2.84958 15.4868 2.91152 15.301 3.06639C14.5576 3.71684 13.7832 4.33631 13.0399 4.98676C12.885 5.11065 12.7921 5.23455 12.8231 5.45136C12.916 6.3496 12.3894 7.00004 11.5531 7.15491C10.8098 7.27881 10.1284 6.75225 9.88057 5.91597C9.84959 5.79207 9.7257 5.6372 9.6018 5.57526C8.98233 5.29649 8.39383 5.0487 7.74339 4.83189C7.61949 4.76994 7.40268 4.80092 7.27878 4.89384C6.75223 5.20357 6.25665 5.23455 5.69912 4.98676C5.57523 4.92481 5.38939 4.92481 5.26549 5.01773C4.67699 5.32747 4.11947 5.69915 3.53097 6.00889C3.22123 6.19473 3.03539 6.38057 3.00442 6.78323C2.94247 7.43367 2.44689 7.89828 1.79644 8.02217C1.23892 8.14607 0.619446 7.83633 0.309709 7.34075C-0.0310007 6.78323 0.0309466 6.07083 0.464578 5.57526C0.898209 5.07968 1.6106 4.92481 2.1991 5.20357C2.44689 5.32747 2.63273 5.29649 2.88052 5.14163C3.5 4.76994 4.08849 4.39826 4.70797 4.05755C4.89381 3.96463 4.98673 3.84073 4.98673 3.62392C5.0177 2.88055 5.57523 2.26108 6.28762 2.19913C7.06196 2.10621 7.74339 2.57081 7.89825 3.34515C7.9602 3.62392 8.0841 3.74781 8.33188 3.84073C8.92038 4.05755 9.50888 4.33631 10.0974 4.55313C10.2213 4.5841 10.4071 4.5841 10.5 4.49118C10.9337 4.21242 11.3673 4.15047 11.8629 4.27436C11.9868 4.30534 12.1726 4.27436 12.2965 4.18144C13.0709 3.56197 13.8142 2.91152 14.5576 2.26108C14.7434 2.10621 14.8054 1.95134 14.7744 1.67258C14.6195 0.774341 15.3319 0 16.416 0Z" fill="white"/>
<path d="M4.95573 12.5134C4.95573 10.8409 4.95573 9.16829 4.95573 7.46474C4.95573 7.15501 5.04865 7.03111 5.35839 7.06208C6.07078 7.09306 6.7522 7.09306 7.46459 7.06208C7.83628 7.03111 7.9292 7.18598 7.9292 7.52669C7.9292 10.655 7.9292 13.8143 7.9292 16.9427C7.9292 17.2524 8.02212 17.717 7.83628 17.8719C7.65044 18.0577 7.21681 17.9648 6.8761 17.9648C6.34954 17.9648 5.85397 17.9648 5.32741 17.9648C5.01768 17.9648 4.95573 17.8719 4.95573 17.5931C4.95573 15.9205 4.95573 14.217 4.95573 12.5134Z" fill="white"/>
<path d="M12.854 13.69C12.854 14.9909 12.854 16.2918 12.854 17.6237C12.854 17.9024 12.761 18.0263 12.4823 17.9954C11.7389 17.9644 10.9955 17.9644 10.2522 17.9954C9.9734 17.9954 9.91146 17.9024 9.91146 17.6546C9.91146 15.0219 9.91146 12.3891 9.91146 9.72539C9.91146 9.4776 10.0044 9.38468 10.2522 9.38468C10.9955 9.41565 11.7699 9.38468 12.5132 9.38468C12.761 9.38468 12.854 9.4776 12.854 9.72539C12.854 11.0573 12.854 12.3581 12.854 13.69Z" fill="white"/>
<path d="M2.97347 14.5886C2.97347 15.6107 2.97347 16.6329 2.97347 17.624C2.97347 17.9028 2.88055 17.9957 2.60179 17.9957C1.85842 17.9647 1.08408 17.9957 0.34071 17.9957C0.092921 17.9957 0 17.9028 0 17.686C0 15.6417 0 13.5665 0 11.5222C0 11.2744 0.092921 11.1505 0.34071 11.1505C1.11505 11.1505 1.88939 11.1505 2.66373 11.1505C2.9425 11.1505 3.00444 11.2744 3.00444 11.5222C2.97347 12.5443 2.97347 13.5665 2.97347 14.5886Z" fill="white"/>
</svg>
