<svg width="17" height="20" viewBox="0 0 17 20" fill="none" xmlns="http://www.w3.org/2000/svg">
<path d="M6.50153 15.4978C6.47839 15.6926 6.38585 15.8225 6.24702 15.9524C5.83055 16.342 5.41409 16.7316 4.99762 17.0996C4.65056 17.4242 4.34978 17.4026 3.97959 17.0996C3.77135 16.9264 3.58625 16.7316 3.40116 16.5368C3.14665 16.2771 3.14665 15.9307 3.37802 15.6926C3.60939 15.4762 4.00272 15.4545 4.23409 15.6926C4.46547 15.9091 4.58115 15.8442 4.74311 15.6494C4.95134 15.4329 5.18272 15.2165 5.41409 15.0216C5.62232 14.8268 5.87683 14.8052 6.15447 14.9567C6.40898 15.0866 6.50153 15.2814 6.50153 15.4978Z" fill="#F8F8F8"/>
<path d="M6.50153 12.0779C6.50153 12.2727 6.40898 12.4242 6.27016 12.5541C5.85369 12.9437 5.43722 13.355 4.99762 13.7446C4.69684 14.026 4.34978 14.026 4.049 13.7662C3.84076 13.5714 3.63253 13.3766 3.4243 13.1818C3.16979 12.9221 3.14665 12.5758 3.40116 12.3377C3.65567 12.0996 4.02586 12.0779 4.30351 12.3377C4.51174 12.5541 4.62743 12.4675 4.78938 12.2944C5.02076 12.0563 5.25213 11.8398 5.50664 11.645C5.69173 11.4935 5.9231 11.4502 6.15447 11.5584C6.36271 11.6667 6.45526 11.8615 6.50153 12.0779Z" fill="#F8F8F8"/>
<path d="M7.14937 7.85714C6.98741 7.68398 6.87172 7.66234 6.70976 7.85714C6.22389 8.33333 5.73801 8.78788 5.22899 9.24242C4.83566 9.58874 4.51174 9.63204 4.21096 9.35065C3.93331 9.09091 3.97959 8.74459 4.32664 8.41991C4.99762 7.79221 5.6686 7.14286 6.36271 6.51515C6.75604 6.14719 7.07996 6.14719 7.47329 6.51515C8.00544 7.01299 8.5376 7.51082 9.06975 8.00866C9.23171 8.16017 9.30112 8.16017 9.46308 8.00866C9.85641 7.61905 10.2729 7.25108 10.7125 6.83983C10.458 6.75325 10.2266 6.66667 10.1109 6.45022C9.92583 6.08225 10.1803 5.671 10.5968 5.64935C11.1752 5.62771 11.7768 5.62771 12.3552 5.64935C12.7486 5.671 12.8874 5.95238 12.8874 6.27706C12.8874 6.7316 12.8874 7.18615 12.8874 7.64069C12.8874 7.98701 12.7023 8.22511 12.3552 8.29004C11.985 8.33333 11.7537 8.16017 11.6611 7.81385C11.6611 7.77056 11.6148 7.74892 11.5917 7.68398C10.9901 8.24675 10.4348 8.78788 9.83328 9.329C9.39367 9.74026 9.11603 9.74026 8.67642 9.329C8.1674 8.80952 7.65839 8.35498 7.14937 7.85714Z" fill="#F8F8F8"/>
<path d="M13.7666 15.9524C13.836 16.1905 13.7435 16.4069 13.5121 16.5801C13.3501 16.6883 13.165 16.6883 13.0031 16.6883C12.2164 16.6883 11.4066 16.6883 10.6199 16.6883C9.83328 16.6883 9.02348 16.6883 8.23681 16.6883C7.7278 16.6883 7.47329 16.4719 7.47329 16.1255C7.47329 15.7576 7.75094 15.5195 8.23681 15.5195C9.83328 15.5195 11.4297 15.5195 13.0262 15.5195C13.3733 15.4978 13.674 15.6277 13.7666 15.9524Z" fill="#F8F8F8"/>
<path d="M13.0262 12.1429C13.5121 12.1429 13.7897 12.381 13.7897 12.7489C13.7897 13.1169 13.5121 13.3117 13.0031 13.3333C12.2164 13.3333 11.4066 13.3333 10.6199 13.3333C9.81014 13.3333 9.00034 13.3333 8.19054 13.3333C7.7278 13.3333 7.45015 13.1169 7.45015 12.7706C7.45015 12.4242 7.7278 12.1645 8.21368 12.1645C9.83328 12.1429 11.4297 12.1212 13.0262 12.1429Z" fill="#F8F8F8"/>
<path d="M16.9827 2.68398C16.867 1.75325 16.1034 1.1039 15.1085 1.1039C14.4376 1.1039 13.7666 1.1039 13.0956 1.1039C12.8642 1.1039 12.7023 1.03896 12.5403 0.887446C11.8925 0.30303 11.1058 0 10.1803 0C9.06976 0 7.95917 0 6.82545 0C5.94624 0 5.15958 0.281385 4.51174 0.844156C4.30351 1.03896 4.09527 1.1039 3.81763 1.1039C3.2392 1.08225 2.68391 1.1039 2.10548 1.1039C0.763525 1.1039 0.0231371 1.81818 0 3.05195C0 5.54113 0 8.0303 0 10.5195V13.7229C0 15.1948 0 16.645 0 18.0952C0 19.3074 0.786662 20 2.0592 20C6.36271 20 10.6431 20 14.9466 20C15.1317 20 15.3168 20 15.4787 19.9567C16.4505 19.7403 16.9827 19.0693 16.9827 17.987C16.9827 13.0303 16.9827 8.05195 16.9827 3.09524C17.0058 2.96537 17.0058 2.8355 16.9827 2.68398ZM4.92821 2.25108C5.34468 1.60173 5.9231 1.19048 6.7329 1.19048C7.9129 1.16883 9.09289 1.16883 10.2729 1.19048C11.1058 1.21212 11.7074 1.60173 12.1007 2.29437C12.2395 2.51082 12.2164 2.5974 11.9156 2.5974C10.7819 2.57576 9.62504 2.5974 8.49132 2.5974C7.38074 2.5974 6.27016 2.5974 5.15958 2.5974C4.8588 2.5974 4.76625 2.53247 4.92821 2.25108ZM15.7564 3.18182V17.9221C15.7564 18.7013 15.5944 18.8528 14.7615 18.8528H2.17489C1.50391 18.8528 1.29568 18.6797 1.29568 18.0519V3.07359C1.29568 2.46753 1.50391 2.27273 2.15175 2.27273H3.56312C3.51684 2.55411 3.47057 2.81385 3.44743 3.07359C3.42429 3.50649 3.6788 3.76623 4.14155 3.76623C7.07996 3.76623 9.99524 3.76623 12.9105 3.76623C13.3733 3.76623 13.6278 3.50649 13.6046 3.07359C13.5815 2.81385 13.5352 2.55411 13.4889 2.27273C14.0211 2.27273 14.5764 2.27273 15.1085 2.27273C15.4787 2.27273 15.687 2.48918 15.7332 2.8355C15.7564 2.94372 15.7564 3.07359 15.7564 3.18182Z" fill="#F8F8F8"/>
<path d="M6.50153 15.4978C6.47839 15.6926 6.38585 15.8225 6.24702 15.9524C5.83055 16.342 5.41409 16.7316 4.99762 17.0996C4.65056 17.4242 4.34978 17.4026 3.97959 17.0996C3.77135 16.9264 3.58625 16.7316 3.40116 16.5368C3.14665 16.2771 3.14665 15.9307 3.37802 15.6926C3.60939 15.4762 4.00272 15.4545 4.23409 15.6926C4.46547 15.9091 4.58115 15.8442 4.74311 15.6494C4.95134 15.4329 5.18272 15.2165 5.41409 15.0216C5.62232 14.8268 5.87683 14.8052 6.15447 14.9567C6.40898 15.0866 6.50153 15.2814 6.50153 15.4978Z" fill="#F8F8F8"/>
<path d="M6.50153 12.0779C6.50153 12.2727 6.40898 12.4242 6.27016 12.5541C5.85369 12.9437 5.43722 13.355 4.99762 13.7446C4.69684 14.026 4.34978 14.026 4.049 13.7662C3.84076 13.5714 3.63253 13.3766 3.4243 13.1818C3.16979 12.9221 3.14665 12.5758 3.40116 12.3377C3.65567 12.0996 4.02586 12.0779 4.30351 12.3377C4.51174 12.5541 4.62743 12.4675 4.78938 12.2944C5.02076 12.0563 5.25213 11.8398 5.50664 11.645C5.69173 11.4935 5.9231 11.4502 6.15447 11.5584C6.36271 11.6667 6.45526 11.8615 6.50153 12.0779Z" fill="#F8F8F8"/>
<path d="M13.5352 16.5801C13.3733 16.6883 13.1882 16.6883 13.0262 16.6883C12.2395 16.6883 11.4297 16.6883 10.6431 16.6883C9.85642 16.6883 9.04661 16.6883 8.25995 16.6883C7.75093 16.6883 7.49643 16.4719 7.49643 16.1255C7.49643 15.7576 7.77407 15.5195 8.25995 15.5195C9.85641 15.5195 11.4529 15.5195 13.0493 15.5195C13.3964 15.5195 13.674 15.6277 13.7897 15.974C13.836 16.2121 13.7435 16.4069 13.5352 16.5801Z" fill="#F8F8F8"/>
<path d="M12.9105 7.61905C12.9105 7.96537 12.7254 8.20346 12.3784 8.2684C12.0082 8.31169 11.7768 8.13853 11.6842 7.79221C11.6842 7.74892 11.638 7.72727 11.6148 7.66234C11.0133 8.22511 10.458 8.76623 9.85642 9.30736C9.41681 9.71862 9.13916 9.71862 8.69956 9.30736C8.19054 8.83117 7.65839 8.35498 7.17251 7.85714C7.01055 7.68398 6.89486 7.66234 6.7329 7.85714C6.24702 8.33333 5.76115 8.78788 5.25213 9.24242C4.8588 9.58874 4.53488 9.63204 4.23409 9.35065C3.95645 9.09091 4.00272 8.74459 4.34978 8.41991C5.02076 7.79221 5.69173 7.14286 6.38585 6.51515C6.77918 6.14719 7.1031 6.14719 7.49643 6.51515C8.02858 7.01299 8.56074 7.51082 9.09289 8.00866C9.25485 8.16017 9.32426 8.16017 9.48622 8.00866C9.87955 7.61905 10.296 7.25108 10.7356 6.83983C10.4811 6.75325 10.2497 6.66667 10.1341 6.45022C9.94897 6.08225 10.2035 5.671 10.6199 5.64935C11.1984 5.62771 11.7999 5.62771 12.3784 5.64935C12.7717 5.671 12.9105 5.95238 12.9105 6.27706C12.9105 6.70996 12.9105 7.1645 12.9105 7.61905Z" fill="#F8F8F8"/>
<path d="M13.7897 12.7489C13.7897 13.1169 13.5121 13.3117 13.0031 13.3333C12.2164 13.3333 11.4066 13.3333 10.6199 13.3333C9.81014 13.3333 9.00034 13.3333 8.19054 13.3333C7.7278 13.3333 7.45015 13.1169 7.45015 12.7706C7.45015 12.4242 7.7278 12.1645 8.21368 12.1645C9.81014 12.1645 11.4066 12.1645 13.0031 12.1645C13.5121 12.1429 13.7897 12.381 13.7897 12.7489Z" fill="#F8F8F8"/>
<path d="M13.5352 16.5801C13.3733 16.6883 13.1882 16.6883 13.0262 16.6883C12.2395 16.6883 11.4297 16.6883 10.6431 16.6883C9.85642 16.6883 9.04661 16.6883 8.25995 16.6883C7.75093 16.6883 7.49643 16.4719 7.49643 16.1255C7.49643 15.7576 7.77407 15.5195 8.25995 15.5195C9.85641 15.5195 11.4529 15.5195 13.0493 15.5195C13.3964 15.5195 13.674 15.6277 13.7897 15.974C13.836 16.2121 13.7435 16.4069 13.5352 16.5801Z" fill="#F8F8F8"/>
<path d="M6.50153 12.0779C6.50153 12.2727 6.40898 12.4242 6.27016 12.5541C5.85369 12.9437 5.43722 13.355 4.99762 13.7446C4.69684 14.026 4.34978 14.026 4.049 13.7662C3.84076 13.5714 3.63253 13.3766 3.4243 13.1818C3.16979 12.9221 3.14665 12.5758 3.40116 12.3377C3.65567 12.0996 4.02586 12.0779 4.30351 12.3377C4.51174 12.5541 4.62743 12.4675 4.78938 12.2944C5.02076 12.0563 5.25213 11.8398 5.50664 11.645C5.69173 11.4935 5.9231 11.4502 6.15447 11.5584C6.36271 11.6667 6.45526 11.8615 6.50153 12.0779Z" fill="#F8F8F8"/>
<path d="M6.50153 15.4978C6.47839 15.6926 6.38585 15.8225 6.24702 15.9524C5.83055 16.342 5.41409 16.7316 4.99762 17.0996C4.65056 17.4242 4.34978 17.4026 3.97959 17.0996C3.77135 16.9264 3.58625 16.7316 3.40116 16.5368C3.14665 16.2771 3.14665 15.9307 3.37802 15.6926C3.60939 15.4762 4.00272 15.4545 4.23409 15.6926C4.46547 15.9091 4.58115 15.8442 4.74311 15.6494C4.95134 15.4329 5.18272 15.2165 5.41409 15.0216C5.62232 14.8268 5.87683 14.8052 6.15447 14.9567C6.40898 15.0866 6.50153 15.2814 6.50153 15.4978Z" fill="#F8F8F8"/>
</svg>
