<svg width="17" height="17" viewBox="0 0 17 17" fill="none" xmlns="http://www.w3.org/2000/svg">
<path fill-rule="evenodd" clip-rule="evenodd" d="M8.49604 5.08944C6.85918 5.08944 5.5323 6.41632 5.5323 8.05318C5.5323 9.69004 6.85918 11.0169 8.49604 11.0169C10.1329 11.0169 11.4598 9.69004 11.4598 8.05318C11.4598 6.41632 10.1329 5.08944 8.49604 5.08944ZM6.7178 8.05318C6.7178 7.07105 7.51391 6.27494 8.49604 6.27494C9.47817 6.27494 10.2743 7.07105 10.2743 8.05318C10.2743 9.03531 9.47817 9.83142 8.49604 9.83142C7.51391 9.83142 6.7178 9.03531 6.7178 8.05318Z" fill="#F8F8F8"/>
<path fill-rule="evenodd" clip-rule="evenodd" d="M7.62237 0.945321C7.09129 0.0526414 5.92899 -0.279673 5.01265 0.261987L3.64966 1.04197C2.64411 1.6168 2.30285 2.90591 2.87727 3.90011C3.1736 4.41135 3.1275 4.73863 3.035 4.89914C2.94246 5.05974 2.68333 5.26326 2.09437 5.26326C0.935151 5.26326 0 6.21031 0 7.3576V8.74858C0 9.89586 0.935135 10.843 2.09437 10.843C2.68333 10.843 2.94246 11.0465 3.035 11.2071C3.1275 11.3676 3.17401 11.6942 2.87768 12.2054C2.30326 13.1996 2.64379 14.4892 3.64934 15.0641L5.01263 15.8442C5.92897 16.3859 7.09128 16.0536 7.62237 15.1609L7.62594 15.1548L7.71288 15.0047C8.0093 14.4934 8.31664 14.3698 8.50295 14.3698C8.68838 14.3698 8.99341 14.4923 9.28584 15.0025L9.28711 15.0047L9.37404 15.1548L9.37761 15.1609C9.9087 16.0536 11.071 16.3859 11.9874 15.8442L13.3503 15.0642C14.3566 14.489 14.6957 13.2088 14.1241 12.2086L14.1223 12.2054C13.826 11.6942 13.8725 11.3676 13.965 11.2071C14.0575 11.0465 14.3166 10.843 14.9056 10.843C16.0648 10.843 17 9.89586 17 8.74858V7.3576C17 6.19835 16.0529 5.26326 14.9056 5.26326C14.3166 5.26326 14.0575 5.05974 13.965 4.89914C13.8725 4.73863 13.826 4.41205 14.1223 3.90081C14.6967 2.90661 14.3562 1.61698 13.3506 1.04215L11.9873 0.261991C11.071 -0.279674 9.9087 0.0526389 9.37761 0.945321L9.37404 0.951399L9.2871 1.10156C8.99068 1.61284 8.68335 1.73642 8.49703 1.73642C8.3116 1.73642 8.00658 1.61388 7.71415 1.10376L7.62594 0.951401L7.62237 0.945321ZM5.61408 1.2836C5.94493 1.08676 6.39045 1.1964 6.602 1.54885L6.68565 1.69334L6.68633 1.69452C7.1052 2.42457 7.7404 2.92191 8.49703 2.92191C9.25314 2.92191 9.89033 2.42486 10.3131 1.69554L10.398 1.54884C10.6095 1.1964 11.0551 1.08677 11.3859 1.2836L11.3946 1.28866L12.7622 2.07126C13.1946 2.31838 13.3436 2.87837 13.0965 3.3066C12.6737 4.03611 12.5601 4.83563 12.9378 5.49105C13.3155 6.14647 14.0641 6.44875 14.9056 6.44875C15.4022 6.44875 15.8145 6.85716 15.8145 7.3576V8.74858C15.8145 9.24519 15.4061 9.65746 14.9056 9.65746C14.0641 9.65746 13.3155 9.95975 12.9378 10.6152C12.5604 11.2701 12.6736 12.069 13.0956 12.7981C13.3448 13.2359 13.1936 13.7884 12.7622 14.0349L11.3946 14.8176L11.3859 14.8226C11.055 15.0195 10.6095 14.9098 10.398 14.5573L10.3143 14.4129L10.3137 14.4117C9.89481 13.6817 9.2596 13.1843 8.50295 13.1843C7.74684 13.1843 7.10965 13.6814 6.68692 14.4107L6.602 14.5574C6.39045 14.9098 5.94493 15.0194 5.61408 14.8226L5.60542 14.8176L4.23783 14.0349C3.8054 13.7878 3.65642 13.2279 3.90345 12.7997C4.32624 12.0702 4.43987 11.2706 4.06215 10.6152C3.68445 9.95975 2.93591 9.65746 2.09437 9.65746C1.59392 9.65746 1.18549 9.24519 1.18549 8.74858V7.3576C1.18549 6.86101 1.5939 6.44875 2.09437 6.44875C2.93591 6.44875 3.68445 6.14647 4.06215 5.49105C4.43983 4.83567 4.32626 4.0362 3.90358 3.30673C3.65637 2.87848 3.80532 2.31841 4.23783 2.07126L5.60542 1.28866L5.61408 1.2836Z" fill="#F8F8F8"/>
</svg>
