<svg width="17" height="20" viewBox="0 0 17 20" fill="none" xmlns="http://www.w3.org/2000/svg">
<path d="M16.9882 16.97C16.9598 15.207 15.7085 13.5543 14.0023 12.9758C13.2345 12.7004 12.4383 12.7279 11.642 12.7279C11.5283 12.7279 11.4145 12.783 11.3292 12.6728C11.2154 12.5351 11.3576 11.6536 11.4998 11.5434C12.0401 11.0476 12.4383 10.4691 12.6657 9.7805C12.7511 9.56013 12.8648 9.4775 13.0923 9.44995C14.3151 9.31222 14.9407 8.1002 14.2867 7.08101C14.1729 6.88819 14.2014 6.80555 14.3151 6.66782C14.7417 6.1169 14.5995 5.37317 14.0023 5.01507C13.8032 4.90489 13.7464 4.76716 13.6895 4.57434C13.3767 2.89404 12.4098 1.76466 10.7889 1.15865C10.5898 1.07602 10.5045 0.993379 10.4192 0.800559C10.1917 0.277188 9.79358 -0.0258162 9.16796 0.00172967C8.7414 0.00172967 8.31484 0.00172967 7.85985 0.00172967C7.17735 0.00172967 6.80767 0.249642 6.55173 0.85565C6.49486 0.993379 6.40954 1.07602 6.26736 1.13111C4.58956 1.73712 3.59425 2.89404 3.28144 4.60188C3.25301 4.76716 3.22457 4.87734 3.05394 4.95998C2.37145 5.37317 2.22926 6.08936 2.7127 6.69536C2.82645 6.83309 2.82645 6.91573 2.7127 7.05346C2.0302 8.12775 2.62738 9.31222 3.9355 9.47749C4.13456 9.50504 4.24831 9.56013 4.30518 9.75295C4.53268 10.4691 4.95924 11.0752 5.49955 11.571C5.6133 11.6812 5.72705 12.5626 5.64174 12.7004C5.58486 12.783 5.49955 12.7554 5.41424 12.7554C5.10143 12.7554 4.76018 12.7554 4.44737 12.7554C2.31457 12.7554 0.437713 14.3256 0.0964651 16.3915C-0.0741587 17.3831 0.0395905 18.3748 0.0111532 19.3664C0.0111532 19.9174 0.124902 20 0.665211 20H16.3626C16.846 20 16.9598 19.8898 16.9598 19.4215C16.9882 18.6227 17.0167 17.7963 16.9882 16.97ZM13.2914 8.62357C13.0639 8.73376 12.8932 8.7613 12.9217 8.43075C12.9501 8.26548 12.9217 8.1002 12.9217 7.93493C12.9217 7.76965 12.9217 7.63192 12.9217 7.46665C12.8932 7.16364 13.0354 7.1361 13.2629 7.24628C13.5473 7.38401 13.7179 7.60438 13.7179 7.93493C13.7748 8.23793 13.6042 8.48584 13.2914 8.62357ZM4.163 4.38152C4.50425 3.19705 5.24362 2.34312 6.49486 1.8473C6.49486 2.42576 6.49486 2.94913 6.49486 3.4725C6.49486 3.74796 6.58017 3.99587 6.89298 3.99587C7.23423 3.99587 7.2911 3.74796 7.2911 3.4725C7.2911 2.78386 7.2911 2.12276 7.2911 1.43411C7.2911 0.910742 7.46172 0.745467 7.9736 0.745467H9.02578C9.56609 0.745467 9.70827 0.883196 9.70827 1.43411C9.70827 2.09521 9.70827 2.75631 9.70827 3.41741C9.70827 3.69287 9.73671 3.96833 10.1064 3.96833C10.4761 3.96833 10.533 3.69287 10.5045 3.41741C10.5045 2.92159 10.5045 2.39822 10.5045 1.90239C11.6136 2.1503 12.7795 3.50005 12.8648 4.57434C12.8648 4.73961 12.8364 4.7947 12.6942 4.7947C12.6373 4.7947 12.552 4.7947 12.4951 4.7947C9.82202 4.7947 7.17735 4.7947 4.50425 4.7947C4.163 4.7947 4.04925 4.71207 4.163 4.38152ZM4.02081 8.65112C3.90706 8.73376 3.76488 8.65112 3.65113 8.56848C3.36675 8.40321 3.253 8.1553 3.253 7.85229C3.28144 7.54929 3.45207 7.30137 3.73644 7.19119C3.90706 7.10855 4.07769 7.10855 4.04925 7.38401C4.02081 7.57683 4.04925 7.74211 4.04925 7.93493C4.04925 8.07266 4.04925 8.21039 4.04925 8.37566C4.04925 8.4583 4.13456 8.59603 4.02081 8.65112ZM3.99237 6.36482C3.85019 6.36482 3.708 6.36482 3.59425 6.33727C3.36675 6.30972 3.253 6.172 3.253 5.95163C3.253 5.73126 3.39519 5.62108 3.59425 5.59353C3.708 5.59353 3.82175 5.56599 3.90706 5.56599H13.0923C13.1776 5.56599 13.2914 5.56599 13.3767 5.56599C13.6042 5.59353 13.7464 5.73126 13.7464 5.95163C13.7464 6.172 13.6042 6.30972 13.3482 6.33727C12.9501 6.36482 12.552 6.33727 12.1254 6.33727H3.99237V6.36482ZM4.87393 8.48584C4.84549 8.15529 4.90237 7.82474 4.84549 7.49419C4.84549 7.21874 4.93081 7.1361 5.24362 7.1361C6.32423 7.16365 7.43329 7.1361 8.5139 7.1361C9.62296 7.1361 10.732 7.1361 11.8126 7.1361C12.0686 7.1361 12.1254 7.19119 12.1254 7.4391C12.097 8.15529 12.1539 8.87149 11.8979 9.56013C11.3008 11.1302 9.6514 12.177 8.05891 11.9291C6.32423 11.6812 4.95924 10.1937 4.87393 8.48584ZM2.2577 19.2287C1.85958 19.2287 1.46146 19.2287 1.0349 19.2287C0.864272 19.2287 0.835835 19.1736 0.835835 19.0359C0.864272 18.182 0.750523 17.3281 0.921147 16.4466C1.09177 15.5651 1.63208 14.7387 2.45676 14.1603C2.45676 15.813 2.45676 17.4107 2.45676 19.0084C2.45676 19.2012 2.39989 19.2287 2.2577 19.2287ZM7.83141 19.2287C6.94985 19.2012 6.0683 19.2012 5.1583 19.2287C4.93081 19.2287 4.84549 19.1736 4.87393 18.9533C4.90237 18.7329 4.87393 18.5401 4.87393 18.3197C4.87393 18.0718 4.73174 17.9341 4.44737 17.9341C4.21987 17.9341 4.07769 18.0718 4.07769 18.3197C4.07769 18.485 4.04925 18.6503 4.07769 18.8155C4.13456 19.1461 3.99237 19.2287 3.65113 19.2287C3.30988 19.2287 3.22457 19.1461 3.253 18.8155C3.28144 17.3281 3.253 15.8406 3.253 14.3531C3.253 13.6094 3.253 13.6094 4.04925 13.5267C4.04925 14.2705 4.04925 14.9867 4.04925 15.7029C4.04925 15.9783 4.04925 16.3089 4.44737 16.3089C4.87393 16.3089 4.87393 16.0059 4.87393 15.7029C4.87393 15.0418 4.87393 14.4082 4.87393 13.7471C4.87393 13.5543 4.90237 13.4992 5.12987 13.4716C5.67018 13.4165 6.0683 13.5543 6.40954 13.9675C6.86454 14.5184 7.40485 15.0142 7.91672 15.5376C8.03047 15.6478 8.08735 15.7855 8.08735 15.9508C8.08735 16.9424 8.08735 17.9341 8.08735 18.9257C8.11578 19.1736 8.05891 19.2287 7.83141 19.2287ZM8.31484 14.8489C7.77454 14.2705 7.20579 13.692 6.63704 13.1411C6.38111 12.8656 6.52329 12.5902 6.46642 12.2321C7.83141 12.8656 9.13952 12.8932 10.4761 12.2321C10.5898 12.7279 10.4476 13.0585 10.1064 13.389C9.59452 13.8297 9.13953 14.3256 8.68453 14.8214C8.54234 15.0142 8.45703 14.9867 8.31484 14.8489ZM13.3767 19.2287C13.1492 19.2012 12.8648 19.3114 12.9501 18.8982C12.9786 18.7053 12.9501 18.5401 12.9501 18.3472C12.9501 18.0993 12.8079 17.9341 12.552 17.9341C12.2961 17.9341 12.1539 18.0718 12.1539 18.3197C12.1539 18.5401 12.1254 18.7604 12.1539 18.9808C12.1539 19.1461 12.097 19.2012 11.9264 19.2012C10.988 19.2012 10.078 19.2012 9.13953 19.2012C8.9689 19.2012 8.91203 19.1736 8.91203 18.9808C8.91203 17.9616 8.91203 16.9149 8.91203 15.8957C8.91203 15.7304 8.99734 15.6202 9.08265 15.5376C9.67983 14.9316 10.3055 14.298 10.9026 13.692C11.0733 13.5267 11.8695 13.389 12.0686 13.4716C12.2108 13.5267 12.1539 13.6645 12.1539 13.7471C12.1539 14.4357 12.1539 15.0968 12.1539 15.7855C12.1539 16.0609 12.2108 16.3089 12.552 16.3089C12.9217 16.3089 12.9786 16.0609 12.9786 15.7855C12.9786 15.0418 12.9786 14.298 12.9786 13.5267C13.7748 13.6369 13.7748 13.6369 13.7748 14.3531C13.7748 15.8406 13.7748 17.3556 13.7748 18.8431C13.7748 19.2012 13.6611 19.2563 13.3767 19.2287ZM16.192 18.9808C16.192 19.1736 16.1635 19.2563 15.936 19.2287C15.481 19.2012 14.9123 19.394 14.6279 19.1461C14.4289 18.9533 14.571 18.3748 14.571 17.9892C14.571 16.7496 14.571 15.4825 14.571 14.1603C15.5664 14.904 16.1067 15.813 16.1635 16.97C16.2204 17.6311 16.1635 18.3197 16.192 18.9808Z" fill="#F8F8F8"/>
<path d="M4.44737 16.7771C4.21987 16.8047 4.07769 16.9424 4.07769 17.1628C4.07769 17.4107 4.24831 17.5484 4.50425 17.5484C4.73174 17.5484 4.84549 17.3831 4.87393 17.1628C4.84549 16.9149 4.70331 16.7771 4.44737 16.7771Z" fill="#F8F8F8"/>
<path d="M12.5236 16.7771C12.2961 16.7771 12.1539 16.9424 12.1539 17.1628C12.1539 17.4107 12.3245 17.5209 12.552 17.5484C12.7795 17.5209 12.9501 17.3831 12.9217 17.1628C12.9501 16.9149 12.7795 16.7771 12.5236 16.7771Z" fill="#F8F8F8"/>
</svg>
