<svg width="17" height="21" viewBox="0 0 17 21" fill="none" xmlns="http://www.w3.org/2000/svg">
<path d="M0.0361977 12.2301C0.0361977 10.67 0.930416 9.41366 2.41201 8.85529C3.84977 8.32156 5.40149 8.65822 6.54118 9.75853C7.6458 10.8178 8.74165 11.877 9.85504 12.9199C9.99531 13.0513 10.2495 13.1498 10.4512 13.158C11.924 13.1744 13.4056 13.1662 14.8784 13.1662C16.1146 13.1662 16.9912 13.9381 17 15.0056C17 16.073 16.1233 16.8531 14.896 16.8613C13.3179 16.8613 11.7399 16.8449 10.1619 16.8695C9.20629 16.8777 8.27701 16.8613 7.61073 16.0566C7.58443 16.0812 7.55813 16.1059 7.52306 16.1305C7.52306 16.4836 7.52306 16.8367 7.52306 17.1898C7.52306 18.2408 7.53183 19.3001 7.5143 20.3511C7.5143 20.7535 7.25129 20.9916 6.88309 20.9998C6.51488 21.008 6.24311 20.7699 6.20804 20.3839C6.19928 20.2608 6.19928 20.1376 6.19928 20.0144C6.19928 18.3886 6.19051 16.7546 6.20804 15.1287C6.20804 14.8413 6.12037 14.6443 5.9012 14.4472C5.21739 13.8313 4.55111 13.1909 3.8936 12.5586C3.56046 12.2383 3.54293 11.877 3.83223 11.6225C4.12154 11.3597 4.48098 11.3926 4.83165 11.7046C4.92809 11.7867 5.01575 11.877 5.11219 11.9674C6.28694 13.0759 7.44416 14.1926 8.64522 15.2765C8.85562 15.4654 9.19753 15.6132 9.48683 15.6132C11.3016 15.646 13.1075 15.6296 14.9223 15.6296C14.9398 15.6296 14.9486 15.6296 14.9661 15.6296C15.4044 15.6132 15.685 15.3668 15.685 15.0138C15.6762 14.6525 15.3957 14.4061 14.9573 14.4061C13.3355 14.3979 11.7136 14.3979 10.0917 14.4061C9.706 14.4061 9.43423 14.2994 9.17123 14.0366C7.97894 12.8706 6.76912 11.721 5.5593 10.5715C4.77905 9.83244 3.85853 9.62715 2.83281 10.0377C1.81586 10.4483 1.35122 11.2201 1.35999 12.2548C1.36876 14.5293 1.35999 16.7956 1.35999 19.0701C1.35999 19.5053 1.37752 19.9488 1.35122 20.3839C1.33369 20.7617 1.04438 21.008 0.676178 20.9998C0.316738 20.9916 0.0712662 20.7535 0.0449657 20.3922C0.0361996 20.3265 0.0449657 20.2526 0.0449657 20.1869C0.0274315 17.5346 0.0274315 14.8824 0.0361977 12.2301Z" fill="#F8F8F8"/>
<path d="M8.48742 4.17486C8.18058 4.19128 7.87374 4.17486 7.53183 4.17486C7.49676 4.33908 7.47923 4.44583 7.45293 4.54436C7.04966 6.2441 5.51546 7.4101 3.71826 7.36905C1.86846 7.3362 0.343037 6.14557 0.0887985 4.39656C-0.0427036 3.45226 -0.00763702 2.48333 0.0624981 1.53082C0.132633 0.644 0.983015 0.0199414 1.92983 0.0199414C3.11335 0.0199414 4.29688 0.0774205 5.4804 0.00351882C6.52365 -0.0621715 7.5669 0.800014 7.5143 1.90854C7.49676 2.22878 7.5143 2.55723 7.5143 2.93495C7.86497 2.93495 8.17181 2.92674 8.47865 2.93495C8.92576 2.95958 9.18876 3.19771 9.17999 3.56722C9.17123 3.92852 8.91699 4.15843 8.48742 4.17486ZM3.6569 6.13735C4.91055 6.20304 6.0064 5.35728 6.14667 4.2077H1.43889C1.43889 5.19306 2.46461 6.07988 3.6569 6.13735ZM6.15544 1.70326C6.11161 1.5144 5.78723 1.25985 5.5856 1.25164C4.37578 1.21058 3.16595 1.227 1.95613 1.23521C1.60546 1.24342 1.38629 1.45692 1.35999 1.78537C1.33369 2.15488 1.35122 2.51617 1.35122 2.91853H6.17297C6.18174 2.50796 6.24311 2.08919 6.15544 1.70326Z" fill="#F8F8F8"/>
<path d="M15.0713 11.9345C14.3261 11.9427 13.5809 11.9345 12.8358 11.9345C12.073 11.9345 11.3191 11.9427 10.5564 11.9345C10.0742 11.9263 9.80244 11.7128 9.80244 11.2612C9.79367 9.84065 9.79367 8.42009 9.80244 6.99133C9.80244 6.53971 10.0567 6.30979 10.5476 6.30979C12.0643 6.30158 13.5809 6.30158 15.1064 6.30979C15.6236 6.30979 15.8515 6.5315 15.8515 7.02418C15.8603 8.4201 15.8603 9.81601 15.8515 11.2119C15.8428 11.721 15.6061 11.9345 15.0713 11.9345ZM14.5015 7.57433H13.5459C13.3881 8.19839 13.1777 8.42831 12.8007 8.39546C12.3097 8.34619 12.1782 8.00953 12.1432 7.58254H11.1438V10.6864H14.5015V7.57433Z" fill="#F8F8F8"/>
</svg>
