<svg width="17" height="16" viewBox="0 0 17 16" fill="none" xmlns="http://www.w3.org/2000/svg">
<path d="M17 8.36081C17 7.88226 16.8269 7.44533 16.4156 7.21646C15.9827 6.96678 15.9395 6.61307 15.9178 6.23855C15.9178 6.17613 15.9178 6.13452 15.8962 6.0721C15.3118 2.28533 11.5458 -0.44032 7.60659 0.059035C4.05701 0.495971 1.30825 3.28404 1.07017 6.7171C1.07017 6.86275 1.00523 6.94597 0.875371 7.00839C0.334276 7.34129 0.0312633 7.79904 0.00961947 8.42323C0.00961947 8.75613 0.00961947 9.06823 0.00961947 9.40113C0.00961947 9.75484 -0.0120243 10.1294 0.00961947 10.4831C0.0961947 11.2321 0.680577 11.8563 1.45975 12.0019C2.28222 12.1476 2.88824 11.669 2.90989 10.8784C2.90989 9.87968 2.90989 8.86017 2.90989 7.86146C2.90989 7.44533 2.69345 7.15404 2.34715 6.92517C2.19564 6.82113 1.93592 6.90436 1.91427 6.69629C1.89263 6.52984 1.95756 6.34259 1.97921 6.15533C2.00085 6.05129 2.02249 5.96807 2.04414 5.86404C2.69345 2.47258 6.39454 0.163067 9.87919 0.932906C12.7795 1.57791 14.7274 3.65855 15.117 6.55065C15.1386 6.7171 15.117 6.77952 14.9222 6.84194C14.4244 6.96678 14.1214 7.3621 14.1214 7.84065C14.1214 8.88097 14.1214 9.9421 14.1214 11.0032C14.1214 11.3986 14.3162 11.7939 14.7058 11.8771C15.2036 12.0019 15.1603 12.2932 15.1603 12.6469C15.1603 12.7302 15.1603 12.7926 15.1603 12.8758C15.1386 13.6665 14.4677 14.3531 13.6452 14.3947C13.2556 14.4155 12.8877 14.3947 12.4981 14.4155C12.3466 14.4155 12.26 14.3531 12.1951 14.2282C11.9786 13.8329 11.6323 13.6457 11.1778 13.6248C10.7233 13.604 10.2688 13.604 9.81426 13.6248C9.1433 13.6665 8.66714 14.145 8.64549 14.7484C8.62385 15.4142 9.05673 15.9136 9.77097 15.976C10.2471 16.0176 10.7449 15.9968 11.2211 15.976C11.6756 15.9552 12.0219 15.7263 12.2167 15.3518C12.2817 15.2269 12.3682 15.1853 12.4981 15.1853C12.8877 15.1853 13.2773 15.1853 13.6452 15.1853C14.749 15.1229 15.6581 14.3947 15.8962 13.3544C16.0044 12.959 15.9395 12.5637 15.9611 12.1476C15.9611 11.9811 16.0044 11.8771 16.1559 11.7939C16.6753 11.4818 16.9784 11.024 16.9784 10.4415C17 9.71323 17 9.04742 17 8.36081ZM2.08742 7.92387C2.08742 8.42323 2.08742 8.92258 2.08742 9.42194C2.08742 9.90049 2.08742 10.3998 2.08742 10.8784C2.08742 11.1697 1.93592 11.2529 1.65455 11.2321C1.26496 11.2113 0.875371 10.8784 0.853728 10.4831C0.832084 9.75484 0.832084 9.02662 0.853728 8.3192C0.875371 7.94468 1.20003 7.63259 1.61126 7.57017C1.93592 7.52855 2.08742 7.63258 2.08742 7.92387ZM11.1129 15.1645C10.7017 15.1645 10.2904 15.1853 9.85755 15.1645C9.61946 15.1645 9.44631 15.0189 9.44631 14.7692C9.44631 14.4987 9.61946 14.3739 9.85755 14.3531C10.0523 14.3323 10.2688 14.3531 10.4636 14.3531C10.6584 14.3531 10.8748 14.3531 11.0696 14.3531C11.3293 14.3531 11.5025 14.4987 11.5241 14.7484C11.5458 15.0189 11.3726 15.1645 11.1129 15.1645ZM16.1559 10.4415C16.1342 10.8368 15.8096 11.1489 15.42 11.2321C15.0737 11.2945 14.9222 11.1697 14.9222 10.8576C14.9222 10.379 14.9222 9.87968 14.9222 9.40113C14.9222 8.92259 14.9222 8.42323 14.9222 7.94468C14.9222 7.65339 15.0737 7.54936 15.3767 7.59097C15.7879 7.65339 16.1342 7.96549 16.1559 8.36081C16.1775 9.04742 16.1775 9.73404 16.1559 10.4415Z" fill="#F8F8F8"/>
<path d="M9.12166 10.4623C9.79261 10.4623 10.4419 10.4831 11.1129 10.4623C12.1518 10.4415 12.8444 9.77565 12.866 8.77694C12.8877 7.6742 12.8877 6.57146 12.866 5.46871C12.866 4.49081 12.1518 3.8042 11.1129 3.8042C10.2688 3.8042 9.40303 3.8042 8.53727 3.8042C7.64988 3.8042 6.76248 3.8042 5.87509 3.8042C4.92276 3.825 4.20852 4.49081 4.18687 5.40629C4.16523 6.57146 4.16523 7.71581 4.18687 8.88097C4.18687 9.54678 4.64139 10.1294 5.2907 10.379C5.50714 10.4623 5.81016 10.3374 5.91838 10.5663C6.00495 10.7744 5.94002 11.024 5.94002 11.2529V11.2945C5.94002 11.669 6.09153 11.9811 6.48111 12.106C6.84906 12.2308 7.15207 12.1476 7.43344 11.8771C7.86632 11.461 8.29919 11.0448 8.73207 10.6287C8.81864 10.5039 8.94851 10.4623 9.12166 10.4623ZM6.74084 11.4402C6.74084 10.9616 6.74084 10.5871 6.74084 10.2126C6.74084 9.83807 6.58933 9.71323 6.19974 9.69242C6.06988 9.69242 5.96166 9.69242 5.8318 9.69242C5.35564 9.67162 4.98769 9.33871 4.98769 8.88097C4.98769 7.71581 4.98769 6.57146 4.98769 5.40629C4.98769 4.94855 5.35564 4.61565 5.8318 4.61565C7.60659 4.61565 9.40303 4.61565 11.1778 4.61565C11.6756 4.61565 12.0436 4.96936 12.0436 5.44791C12.0436 6.59226 12.0436 7.73662 12.0436 8.88097C12.0436 9.35952 11.6756 9.69242 11.1778 9.69242C10.4419 9.71323 9.6844 9.71323 8.94851 9.69242C8.64549 9.69242 8.42905 9.77565 8.23426 9.98371C7.77974 10.4415 7.28193 10.8992 6.74084 11.4402Z" fill="#F8F8F8"/>
<path d="M9.33809 7.17484C9.31645 6.73791 8.94851 6.3842 8.49399 6.405C8.27755 6.405 8.08276 6.50904 7.93125 6.65468C7.77974 6.80033 7.69317 7.00839 7.69317 7.21645C7.69317 7.42452 7.80138 7.61178 7.95289 7.75742C8.1044 7.90307 8.29919 7.98629 8.51563 7.98629H8.53727C8.75371 7.98629 8.94851 7.88226 9.10001 7.73662C9.25152 7.59097 9.33809 7.38291 9.33809 7.17484Z" fill="#F8F8F8"/>
<path d="M6.54605 6.405C6.09153 6.405 5.72358 6.77952 5.72358 7.19565C5.72358 7.40371 5.81016 7.59097 5.98331 7.73662C6.13481 7.88226 6.35125 7.96549 6.54605 7.96549C6.76248 7.96549 6.95728 7.88226 7.10878 7.71581C7.26029 7.54936 7.34687 7.3621 7.34687 7.15404C7.36851 6.75871 6.97892 6.405 6.54605 6.405Z" fill="#F8F8F8"/>
<path d="M10.4636 7.98629C10.4852 7.98629 10.4852 7.98629 10.4636 7.98629C10.68 7.98629 10.8964 7.90307 11.048 7.75742C11.1995 7.61178 11.3077 7.40371 11.3077 7.19565C11.3077 6.77952 10.9614 6.405 10.5069 6.3842H10.4852C10.0523 6.3842 9.6844 6.73791 9.66275 7.15404C9.66275 7.3621 9.74933 7.54936 9.90083 7.71581C10.0523 7.88226 10.2688 7.98629 10.4636 7.98629Z" fill="#F8F8F8"/>
</svg>
