<?xml version="1.0" encoding="iso-8859-1"?>
<!-- Uploaded to: SVG Repo, www.svgrepo.com, Generator: SVG Repo Mixer Tools -->
<svg fill="#000000" height="800px" width="800px" version="1.1" id="Capa_1" xmlns="http://www.w3.org/2000/svg" xmlns:xlink="http://www.w3.org/1999/xlink" 
	 viewBox="0 0 490 490" xml:space="preserve">
<g id="line_28_">
	<path d="M167.275,372.214c-32.931,0-59.633,26.366-59.633,58.901c0,32.519,26.702,58.885,59.633,58.885
		c32.931,0,59.634-26.366,59.634-58.885C226.908,398.58,200.221,372.214,167.275,372.214z M167.275,459.466
		c-16.046,0-29.099-12.717-29.099-28.351s13.053-28.366,29.099-28.366c16.046,0,29.099,12.717,29.099,28.366
		C196.374,446.763,183.321,459.466,167.275,459.466z"/>
	<path d="M368.221,372.214c-32.931,0-59.634,26.366-59.634,58.901c0,32.519,26.702,58.885,59.634,58.885
		s59.634-26.366,59.634-58.885C427.855,398.58,401.153,372.214,368.221,372.214z M368.221,459.466
		c-16.046,0-29.099-12.717-29.099-28.351s13.053-28.366,29.099-28.366s29.099,12.717,29.099,28.366
		C397.32,446.763,384.267,459.466,368.221,459.466z"/>
	<path d="M100.969,0H0.725v30.534h76.779l22.687,85.282H47.015L108.817,348h318.656l61.802-232.168H131.809L100.969,0z
		 M404.008,317.466h-271.71L86.741,146.367H449.55L404.008,317.466z"/>
	<polygon points="306.313,232.458 275.779,232.458 275.779,165.252 260.512,165.252 260.512,232.458 229.977,232.458 
		268.145,298.58 	"/>
</g>
</svg>