<svg width="50" height="50" viewBox="0 0 50 50" fill="none" xmlns="http://www.w3.org/2000/svg">
<path d="M25.247 21.3402C30.8527 21.3402 35.397 16.7959 35.397 11.1902C35.397 5.58453 30.8527 1.04022 25.247 1.04022C19.6414 1.04022 15.097 5.58453 15.097 11.1902C15.097 16.7959 19.6414 21.3402 25.247 21.3402Z" fill="#DCE775"/>
<path d="M25.247 1.04022C24.7607 1.04022 24.283 1.07655 23.8148 1.14276C28.742 1.83905 32.5326 6.07089 32.5326 11.1902C32.5326 16.3094 28.742 20.5414 23.8148 21.2377C24.283 21.3039 24.7607 21.3402 25.247 21.3402C30.8527 21.3402 35.397 16.7959 35.397 11.1902C35.397 5.58436 30.8527 1.04022 25.247 1.04022Z" fill="#7DA05D"/>
<path d="M30.4859 16.0369C32.4644 14.0583 33.3344 11.7204 32.429 10.815C31.5236 9.90965 29.1857 10.7797 27.2072 12.7583C25.2287 14.7369 24.3587 17.0748 25.2641 17.9801C26.1695 18.8855 28.5074 18.0155 30.4859 16.0369Z" fill="#E3EC91"/>
<path d="M25.2295 17.9798C26.1348 17.0745 25.2648 14.7366 23.2862 12.7581C21.3076 10.7795 18.9697 9.9096 18.0643 10.815C17.159 11.7204 18.029 14.0583 20.0076 16.0368C21.9862 18.0153 24.3241 18.8852 25.2295 17.9798Z" fill="#E3EC91"/>
<path d="M25.2471 14.6408C26.741 14.6408 27.9521 12.3445 27.9521 9.5119C27.9521 6.67929 26.741 4.383 25.2471 4.383C23.7531 4.383 22.542 6.67929 22.542 9.5119C22.542 12.3445 23.7531 14.6408 25.2471 14.6408Z" fill="#E3EC91"/>
<path d="M9.12305 21.0795C9.12305 25.4682 12.5807 30.6428 12.5807 30.6428C13.209 31.5831 13.723 33.2778 13.723 34.4088V44.7604C13.723 45.8913 14.6484 46.8166 15.7793 46.8166H31.5373C32.6682 46.8166 33.5936 45.8913 33.5936 44.7604V44.4291C33.5936 43.2983 34.5189 42.3729 35.6498 42.3729H39.1135C40.2443 42.3729 41.1697 41.4475 41.1697 40.3167V34.7547C41.1697 33.6239 42.0951 32.6985 43.226 32.6985H43.6777C44.8086 32.6985 45.318 31.8719 44.8094 30.8618L42.0941 25.4676C41.7862 24.8552 41.4777 24.243 41.1687 23.6311C41.1684 23.6313 41.2592 22.8739 41.3709 21.9481V21.0795C41.3703 20.045 41.2706 19.0129 41.0732 17.9973H9.4207C9.22322 19.0129 9.12354 20.045 9.12305 21.0795Z" fill="#5D8834"/>
<path d="M30.7291 44.4291V44.7604C30.7291 45.8913 29.8037 46.8166 28.6729 46.8166H31.5375C32.6684 46.8166 33.5938 45.8913 33.5938 44.7604V44.4291C33.5938 43.2983 34.5191 42.3729 35.65 42.3729H32.7854C31.6543 42.3729 30.7291 43.2983 30.7291 44.4291ZM44.8096 30.8618L42.0943 25.4676C41.7863 24.8553 41.4778 24.2431 41.1689 23.6311C41.1686 23.6313 41.2594 22.8739 41.3711 21.9481V21.0795C41.3705 20.045 41.2708 19.0129 41.0734 17.9973H38.209C38.4065 19.0129 38.5061 20.045 38.5066 21.0795V21.9481C38.3949 22.8739 38.3041 23.6311 38.3045 23.6311C38.3049 23.6309 38.7213 24.4573 39.2299 25.4676L41.9451 30.8618C42.4535 31.8719 41.9443 32.6985 40.8135 32.6985H40.3617C39.2309 32.6985 38.3055 33.6239 38.3055 34.7547V40.3167C38.3055 41.4477 37.3801 42.3729 36.2492 42.3729H39.1139C40.2447 42.3729 41.1701 41.4475 41.1701 40.3167V34.7547C41.1701 33.6239 42.0955 32.6985 43.2264 32.6985H43.6781C44.8088 32.6985 45.3182 31.8719 44.8096 30.8618Z" fill="#7DA05D"/>
<path d="M16.5877 44.7604V34.4088C16.5877 33.278 16.0736 31.5833 15.4453 30.6428C15.4453 30.6428 11.9877 25.4682 11.9877 21.0795C11.9883 20.045 12.088 19.0129 12.2854 17.9973H9.4207C9.22322 19.0129 9.12354 20.045 9.12305 21.0795C9.12305 25.4682 12.5807 30.6428 12.5807 30.6428C13.209 31.5831 13.723 33.2778 13.723 34.4088V44.7604C13.723 45.8913 14.6484 46.8166 15.7793 46.8166H18.6439C17.5129 46.8166 16.5877 45.8915 16.5877 44.7604Z" fill="#7DA05D"/>
<path d="M24.0078 25.0414L19.7369 20.7705H4.99316V46.8166H24.0078V25.0414Z" fill="#DCE775"/>
<path d="M7.34412 26.5742H21.6568V33.1633H7.34412V26.5742Z" fill="#CECECE"/>
<path d="M7.34412 33.1634L14.5004 27.3007L21.6568 33.1634H7.34412Z" fill="#5D8834"/>
<path d="M17.9323 30.112L19.7658 28.6096L21.6569 30.1588V33.1633L17.9323 30.112Z" fill="#5D8834"/>
<path d="M5.33652 48.6668H1.82031C1.74261 48.6668 1.66809 48.6977 1.61315 48.7526C1.55821 48.8076 1.52734 48.8821 1.52734 48.9598C1.52734 49.0375 1.55821 49.112 1.61315 49.167C1.66809 49.2219 1.74261 49.2528 1.82031 49.2528H5.33652C5.41422 49.2528 5.48874 49.2219 5.54368 49.167C5.59863 49.112 5.62949 49.0375 5.62949 48.9598C5.62949 48.8821 5.59863 48.8076 5.54368 48.7526C5.48874 48.6977 5.41422 48.6668 5.33652 48.6668ZM48.1797 48.6668H44.6635C44.5858 48.6668 44.5113 48.6977 44.4563 48.7526C44.4014 48.8076 44.3705 48.8821 44.3705 48.9598C44.3705 49.0375 44.4014 49.112 44.4563 49.167C44.5113 49.2219 44.5858 49.2528 44.6635 49.2528H48.1797C48.2574 49.2528 48.3319 49.2219 48.3868 49.167C48.4418 49.112 48.4727 49.0375 48.4727 48.9598C48.4727 48.8821 48.4418 48.8076 48.3868 48.7526C48.3319 48.6977 48.2574 48.6668 48.1797 48.6668ZM42.6717 48.6668H7.32832C7.25062 48.6668 7.1761 48.6977 7.12116 48.7526C7.06622 48.8076 7.03535 48.8821 7.03535 48.9598C7.03535 49.0375 7.06622 49.112 7.12116 49.167C7.1761 49.2219 7.25062 49.2528 7.32832 49.2528H42.6719C42.7496 49.2527 42.8241 49.2218 42.879 49.1669C42.9339 49.1119 42.9648 49.0374 42.9647 48.9597C42.9647 48.882 42.9338 48.8075 42.8789 48.7526C42.8239 48.6976 42.7494 48.6668 42.6717 48.6668ZM1.82031 47.1096H48.1797C48.2574 47.1096 48.3319 47.0787 48.3868 47.0238C48.4418 46.9688 48.4727 46.8943 48.4727 46.8166C48.4727 46.7389 48.4418 46.6644 48.3868 46.6095C48.3319 46.5545 48.2574 46.5237 48.1797 46.5237H33.0846C33.575 46.0928 33.8865 45.4629 33.8865 44.7604V44.4291C33.8865 43.4569 34.6775 42.6658 35.6498 42.6658H39.1135C40.4088 42.6658 41.4627 41.6119 41.4627 40.3166V34.7545C41.4627 33.7822 42.2537 32.9912 43.226 32.9912H43.6777C44.3303 32.9912 44.8381 32.7502 45.1078 32.3123C45.3775 31.8746 45.3645 31.3125 45.0711 30.7297L41.7025 24.0383C41.601 23.8369 41.5273 23.6905 41.4691 23.5848C41.4949 23.369 41.5715 22.7309 41.6617 21.9828C41.6631 21.9711 41.6639 21.0791 41.6639 21.0791C41.6639 20.0354 41.5619 18.9797 41.3609 17.9412C41.348 17.8744 41.3122 17.8142 41.2597 17.7709C41.2072 17.7276 41.1413 17.7039 41.0732 17.7039H33.4072C34.8858 15.8547 35.6908 13.5573 35.6898 11.1897C35.6898 5.43147 31.0053 0.746704 25.2469 0.746704C19.4885 0.746704 14.8041 5.43186 14.8041 11.1901C14.8032 13.5576 15.6081 15.855 17.0863 17.7043H9.4207C9.35265 17.7043 9.28672 17.728 9.23422 17.7713C9.18172 17.8146 9.14594 17.8748 9.13301 17.9416C8.97197 18.7783 8.87553 19.6261 8.84453 20.4776H4.99316C4.91546 20.4776 4.84095 20.5084 4.786 20.5634C4.73106 20.6183 4.7002 20.6928 4.7002 20.7705V46.5237H1.82031C1.74261 46.5237 1.66809 46.5545 1.61315 46.6095C1.55821 46.6644 1.52734 46.7389 1.52734 46.8166C1.52734 46.8943 1.55821 46.9688 1.61315 47.0238C1.66809 47.0787 1.74261 47.1096 1.82031 47.1096ZM20.0299 21.4778L23.3006 24.7485H20.0299V21.4778ZM15.39 11.1901C15.39 5.75491 19.8119 1.33303 25.2471 1.33303C30.6822 1.33303 35.1041 5.75491 35.1041 11.1901C35.1052 13.5888 34.2302 15.9054 32.6434 17.7043H28.5633C29.3498 17.3596 30.0689 16.8684 30.6934 16.2438C31.4028 15.5341 31.9511 14.6801 32.301 13.7397C32.651 12.7993 32.7944 11.7945 32.7215 10.7938C32.7164 10.7236 32.6862 10.6575 32.6364 10.6077C32.5867 10.5579 32.5206 10.5278 32.4504 10.5227C30.7918 10.4024 29.1446 10.8773 27.8047 11.8621C28.0956 11.1127 28.245 10.3157 28.2451 9.51174C28.2449 8.45378 27.9868 7.41182 27.4933 6.47602C26.9997 5.54022 26.2856 4.73878 25.4127 4.14104C25.364 4.10754 25.3062 4.08961 25.2471 4.08961C25.1879 4.08961 25.1302 4.10754 25.0814 4.14104C24.2085 4.7388 23.4944 5.54025 23.0009 6.47604C22.5074 7.41184 22.2493 8.45379 22.249 9.51174C22.249 10.3274 22.4027 11.1225 22.6895 11.8621C21.3494 10.8775 19.7023 10.4026 18.0438 10.5227C17.9735 10.5278 17.9075 10.5579 17.8577 10.6077C17.8079 10.6575 17.7777 10.7236 17.7727 10.7938C17.6998 11.7945 17.8432 12.7992 18.1932 13.7396C18.5431 14.68 19.0914 15.5341 19.8008 16.2438C20.4181 16.8605 21.1457 17.3559 21.9457 17.7043H17.8504C16.2639 15.9053 15.389 13.5887 15.39 11.1901ZM25.54 14.0502V9.44045C25.54 9.36275 25.5092 9.28824 25.4542 9.23329C25.3993 9.17835 25.3248 9.14749 25.2471 9.14749C25.1694 9.14749 25.0949 9.17835 25.0399 9.23329C24.985 9.28824 24.9541 9.36275 24.9541 9.44045V14.05C24.2908 13.4943 23.7572 12.8 23.3911 12.0159C23.0249 11.2319 22.835 10.3771 22.8348 9.51174C22.835 8.58333 23.0535 7.66797 23.4725 6.83949C23.8915 6.01101 24.4994 5.29261 25.2471 4.74221C25.9947 5.29265 26.6025 6.01107 27.0215 6.83954C27.4405 7.66801 27.6589 8.58335 27.6592 9.51174C27.6592 11.2723 26.8762 12.9297 25.54 14.0502ZM24.9346 17.0061L22.7482 14.7106C22.6947 14.6543 22.6209 14.6216 22.5432 14.6197C22.4655 14.6178 22.3903 14.6468 22.334 14.7004C22.2777 14.754 22.245 14.8278 22.2431 14.9054C22.2412 14.9831 22.2702 15.0584 22.3238 15.1147L24.7881 17.7022C23.0773 17.7127 21.4303 17.0451 20.215 15.8299C19.5959 15.2104 19.1104 14.4705 18.7885 13.656C18.4666 12.8415 18.3151 11.9695 18.3436 11.0942C19.219 11.0655 20.091 11.2168 20.9056 11.5387C21.7201 11.8606 22.46 12.3463 23.0793 12.9657C24.1608 14.0474 24.819 15.4808 24.9346 17.0061ZM28.1775 14.7004C28.1497 14.6739 28.1169 14.6531 28.081 14.6392C28.0451 14.6254 28.0068 14.6187 27.9683 14.6197C27.9298 14.6206 27.8919 14.6291 27.8568 14.6447C27.8216 14.6603 27.7898 14.6827 27.7633 14.7106L25.5594 17.0248C25.6707 15.4929 26.3293 14.0521 27.4148 12.9655C28.0341 12.346 28.7739 11.8603 29.5885 11.5383C30.4031 11.2164 31.2752 11.0652 32.1506 11.094C32.1791 11.9694 32.0277 12.8413 31.7058 13.6559C31.3839 14.4704 30.8983 15.2103 30.2791 15.8297C29.2609 16.8479 27.9684 17.4793 26.5416 17.6557C26.401 17.6731 26.2568 17.6862 26.1135 17.6942C26.0928 17.6954 26.0723 17.6988 26.0523 17.7043H25.7213L28.1877 15.1145C28.2412 15.0582 28.2702 14.983 28.2683 14.9053C28.2664 14.8277 28.2338 14.754 28.1775 14.7004ZM9.66406 18.2903H40.8299C40.9943 19.2109 41.0774 20.1443 41.0781 21.0795V21.9305L40.9371 23.1016C40.8711 23.6522 40.8594 23.749 40.9375 23.8225C41.04 24.0254 41.4033 24.7467 41.8326 25.5992L44.5479 30.9934C44.7463 31.3877 44.768 31.7471 44.609 32.0051C44.45 32.2631 44.1191 32.4053 43.6777 32.4053H43.226C41.9307 32.4053 40.8768 33.4592 40.8768 34.7545V40.3166C40.8768 41.2889 40.0857 42.0799 39.1135 42.0799H35.6498C34.3545 42.0799 33.3006 43.1338 33.3006 44.4291V44.7604C33.3006 45.7326 32.5096 46.5237 31.5373 46.5237H24.3008V25.0414C24.3008 24.9637 24.2699 24.8893 24.215 24.8342L19.9441 20.5633C19.9169 20.5361 19.8846 20.5145 19.8491 20.4998C19.8135 20.4851 19.7754 20.4775 19.7369 20.4776H9.43047C9.45818 19.744 9.53623 19.0132 9.66406 18.2903ZM5.28613 21.0635H19.4439V25.0414C19.4439 25.1191 19.4748 25.1936 19.5298 25.2486C19.5847 25.3035 19.6592 25.3344 19.7369 25.3344H23.7148V46.5237H5.28613V21.0635Z" fill="#3F3679"/>
<path d="M21.6568 26.2812H7.34412C7.26642 26.2812 7.1919 26.3121 7.13696 26.3671C7.08201 26.422 7.05115 26.4965 7.05115 26.5742V33.1633C7.05115 33.241 7.08201 33.3155 7.13696 33.3704C7.1919 33.4254 7.26642 33.4563 7.34412 33.4563H21.6568C21.7345 33.4563 21.809 33.4254 21.864 33.3704C21.9189 33.3155 21.9498 33.241 21.9498 33.1633V26.5742C21.9498 26.4965 21.9189 26.422 21.864 26.3671C21.809 26.3121 21.7345 26.2812 21.6568 26.2812ZM17.7469 30.3387L17.7484 30.34L20.8369 32.8703H8.16404L14.5006 27.6793L17.7469 30.3387ZM18.3945 30.1119L19.766 28.9885L21.364 30.2975V32.5445L18.3945 30.1119ZM21.3638 26.8672V29.54L19.9515 28.383C19.8992 28.3401 19.8336 28.3167 19.7659 28.3167C19.6982 28.3167 19.6326 28.3401 19.5802 28.383L17.9322 29.733L14.6863 27.0738C14.6339 27.0309 14.5683 27.0075 14.5007 27.0075C14.433 27.0075 14.3674 27.0309 14.315 27.0738L7.63728 32.5443V26.8672H21.3638ZM21.6568 34.6287H7.34412C7.26642 34.6287 7.1919 34.6596 7.13696 34.7145C7.08201 34.7695 7.05115 34.844 7.05115 34.9217C7.05115 34.9994 7.08201 35.0739 7.13696 35.1288C7.1919 35.1838 7.26642 35.2146 7.34412 35.2146H21.6568C21.7345 35.2146 21.809 35.1838 21.864 35.1288C21.9189 35.0739 21.9498 34.9994 21.9498 34.9217C21.9498 34.844 21.9189 34.7695 21.864 34.7145C21.809 34.6596 21.7345 34.6287 21.6568 34.6287ZM21.6568 36.3873H7.34412C7.26642 36.3873 7.1919 36.4182 7.13696 36.4731C7.08201 36.5281 7.05115 36.6026 7.05115 36.6803C7.05115 36.758 7.08201 36.8325 7.13696 36.8874C7.1919 36.9424 7.26642 36.9732 7.34412 36.9732H21.6568C21.7345 36.9732 21.809 36.9424 21.864 36.8874C21.9189 36.8325 21.9498 36.758 21.9498 36.6803C21.9498 36.6026 21.9189 36.5281 21.864 36.4731C21.809 36.4182 21.7345 36.3873 21.6568 36.3873ZM21.6568 38.1459H7.34412C7.26642 38.1459 7.1919 38.1768 7.13696 38.2317C7.08201 38.2866 7.05115 38.3612 7.05115 38.4389C7.05115 38.5166 7.08201 38.5911 7.13696 38.646C7.1919 38.701 7.26642 38.7318 7.34412 38.7318H21.6568C21.7345 38.7318 21.809 38.701 21.864 38.646C21.9189 38.5911 21.9498 38.5166 21.9498 38.4389C21.9498 38.3612 21.9189 38.2866 21.864 38.2317C21.809 38.1768 21.7345 38.1459 21.6568 38.1459ZM21.6568 39.9045H7.34412C7.26642 39.9045 7.1919 39.9354 7.13696 39.9903C7.08201 40.0452 7.05115 40.1198 7.05115 40.1975C7.05115 40.2752 7.08201 40.3497 7.13696 40.4046C7.1919 40.4596 7.26642 40.4904 7.34412 40.4904H21.6568C21.7345 40.4904 21.809 40.4596 21.864 40.4046C21.9189 40.3497 21.9498 40.2752 21.9498 40.1975C21.9498 40.1198 21.9189 40.0452 21.864 39.9903C21.809 39.9354 21.7345 39.9045 21.6568 39.9045ZM21.6568 41.6629H7.34412C7.26642 41.6629 7.1919 41.6938 7.13696 41.7487C7.08201 41.8036 7.05115 41.8782 7.05115 41.9559C7.05115 42.0336 7.08201 42.1081 7.13696 42.163C7.1919 42.218 7.26642 42.2488 7.34412 42.2488H21.6568C21.7345 42.2488 21.809 42.218 21.864 42.163C21.9189 42.1081 21.9498 42.0336 21.9498 41.9559C21.9498 41.8782 21.9189 41.8036 21.864 41.7487C21.809 41.6938 21.7345 41.6629 21.6568 41.6629ZM21.6568 43.4215H7.34412C7.26642 43.4215 7.1919 43.4524 7.13696 43.5073C7.08201 43.5622 7.05115 43.6368 7.05115 43.7145C7.05115 43.7922 7.08201 43.8667 7.13696 43.9216C7.1919 43.9766 7.26642 44.0074 7.34412 44.0074H21.6568C21.7345 44.0074 21.809 43.9766 21.864 43.9216C21.9189 43.8667 21.9498 43.7922 21.9498 43.7145C21.9498 43.6368 21.9189 43.5622 21.864 43.5073C21.809 43.4524 21.7345 43.4215 21.6568 43.4215Z" fill="#3F3679"/>
</svg>
