<svg width="50" height="50" viewBox="0 0 50 50" fill="none" xmlns="http://www.w3.org/2000/svg">
<path d="M46.9727 37.9758V18.5461C46.9727 16.0797 44.9953 14.0625 42.5781 14.0625H22.0703C19.6531 14.0625 17.6758 16.0805 17.6758 18.5461H12.1094C10.2281 18.5461 8.74062 18.5461 7.67188 19.8133C6.66641 21.0055 6.46953 22.9914 6.46953 26.0195C6.46953 27.6641 5.76328 28.4227 4.78516 29.4734C3.67578 30.6641 2.29453 32.1484 2.29453 34.9875V38.1859C2.07173 38.3181 1.88711 38.5059 1.75878 38.7309C1.63045 38.956 1.56281 39.2105 1.5625 39.4695V40.9641C1.5625 41.7859 2.22266 42.4586 3.02734 42.4586H4.55078C4.5138 42.7061 4.49422 42.956 4.49219 43.2063C4.49219 46.0953 6.78828 48.4375 9.61953 48.4375C12.4492 48.4375 14.7469 46.0953 14.7469 43.207C14.7469 42.9523 14.7234 42.7039 14.6891 42.4594H20.6062V43.207C20.6062 44.0281 21.2664 44.7008 22.0711 44.7008H27.9305C28.7359 44.7008 29.3953 44.0281 29.3953 43.207V42.4594H34.5812C34.5443 42.7069 34.5247 42.9567 34.5227 43.207C34.5227 46.0953 36.8187 48.4375 39.65 48.4375C42.4797 48.4375 44.7773 46.0953 44.7773 43.207C44.7773 42.9523 44.7539 42.7039 44.7195 42.4594H46.975C47.7805 42.4594 48.4398 41.7867 48.4398 40.9648V39.4703C48.4375 38.6492 47.7781 37.9758 46.9727 37.9758ZM42.5781 35.7336H22.0703C20.8586 35.7336 19.8727 34.7273 19.8727 33.4914V30.5023H21.3375V33.4914C21.336 33.6876 21.4123 33.8763 21.5496 34.0165C21.6869 34.1566 21.8742 34.2366 22.0703 34.2391H42.5781C42.7743 34.2366 42.9615 34.1566 43.0988 34.0165C43.2361 33.8763 43.3124 33.6876 43.3109 33.4914V30.5023H44.7758V33.4914C44.7758 34.7273 43.7898 35.7336 42.5781 35.7336ZM25.9172 26.3547V27.0078H24.2938V28.3016H26.1094V28.9625H23.507V24.557H26.0133V25.218H24.2938V26.3555H25.9172V26.3547ZM22.8031 20.0406C22.6068 20.0386 22.4194 19.9587 22.282 19.8185C22.1446 19.6783 22.0684 19.4893 22.0703 19.293C22.0703 18.8797 22.3984 18.5453 22.8031 18.5453C23.2086 18.5453 23.5359 18.8797 23.5359 19.293C23.5376 19.4892 23.4614 19.6781 23.324 19.8182C23.1867 19.9584 22.9994 20.0384 22.8031 20.0406ZM23.5352 32.7445C23.5361 32.8417 23.5179 32.9381 23.4815 33.0282C23.4452 33.1183 23.3915 33.2004 23.3234 33.2697C23.2554 33.3391 23.1744 33.3944 23.0849 33.4324C22.9955 33.4704 22.8995 33.4905 22.8023 33.4914C22.3977 33.4914 22.0695 33.157 22.0695 32.7445C22.0695 32.332 22.3977 31.9977 22.8023 31.9977C23.2078 31.9977 23.5352 32.332 23.5352 32.7445ZM29.3563 28.2883V28.9625H26.7992V24.557H27.5852V28.2883H29.3563ZM29.9484 28.9625V24.557H30.7367V28.9625H29.9484ZM31.2273 24.557H32.0852L32.6727 26.5578C32.8391 27.1117 32.9805 27.6289 33.0945 28.1648H33.1078C33.2219 27.6422 33.3766 27.107 33.55 26.5703L34.1766 24.557H35.0133L33.5242 28.9625H32.6211L31.2273 24.557ZM37.8891 26.3547V27.0078H36.2641V28.3016H38.0797V28.9625H35.4773V24.557H37.9852V25.218H36.2641V26.3555H37.8891V26.3547ZM41.1133 19.2937C41.1133 18.8805 41.4414 18.5461 41.8461 18.5461C42.2516 18.5461 42.5789 18.8805 42.5789 19.2937C42.5808 19.49 42.5047 19.6791 42.3672 19.8192C42.2298 19.9594 42.0424 20.0393 41.8461 20.0414C41.6499 20.0389 41.4627 19.9589 41.3254 19.8188C41.1881 19.6787 41.1118 19.4899 41.1133 19.2937ZM42.5781 32.7445C42.5791 32.8417 42.5608 32.9381 42.5245 33.0282C42.4882 33.1183 42.4345 33.2004 42.3664 33.2697C42.2984 33.3391 42.2173 33.3944 42.1279 33.4324C42.0385 33.4704 41.9425 33.4905 41.8453 33.4914C41.4406 33.4914 41.1125 33.157 41.1125 32.7445C41.1125 32.332 41.4406 31.9977 41.8453 31.9977C42.2508 31.9977 42.5781 32.332 42.5781 32.7445ZM41.2898 24.8781C41.5258 25.0805 41.6609 25.3867 41.6609 25.7602C41.6609 26.3289 41.2852 26.7156 40.8812 26.8641V26.8844C41.1891 27.0016 41.3734 27.3094 41.482 27.7328C41.6164 28.282 41.7305 28.7914 41.8219 28.9625H41.0094C40.9461 28.8312 40.843 28.4727 40.7219 27.9234C40.6008 27.3484 40.3961 27.1648 39.9477 27.1516H39.5516V28.9625H38.7711V24.6164C39.1645 24.5533 39.5625 24.5224 39.9609 24.5242C40.5797 24.5242 41.0016 24.6297 41.2898 24.8781ZM44.075 27.1062V28.9625H43.2891V27.125L41.9281 24.5562H42.8219L43.3398 25.6867C43.4867 26.0133 43.5977 26.2625 43.7125 26.5633H43.725C43.8328 26.2828 43.9539 26.0078 44.1016 25.6867L44.6188 24.5562H45.5086L44.075 27.1062ZM19.8734 18.5461C19.8734 17.3094 20.8594 16.3039 22.0711 16.3039H42.5781C43.7898 16.3039 44.7758 17.3094 44.7758 18.5461V23.0297H43.3109V18.5461C43.3126 18.3499 43.2364 18.161 43.099 18.0208C42.9617 17.8807 42.7744 17.8007 42.5781 17.7984H22.0703C21.8742 17.8009 21.6869 17.8809 21.5496 18.021C21.4123 18.1612 21.336 18.3499 21.3375 18.5461V23.0297H19.8727V18.5461H19.8734ZM19.1406 24.6164C19.5551 24.5517 19.9742 24.5208 20.3937 24.5242C21.1984 24.5242 21.7555 24.6945 22.1523 25.0336C22.568 25.3805 22.8234 25.9031 22.8234 26.6555C22.8234 27.4391 22.5609 28.0273 22.1523 28.407C21.7242 28.8055 21.0398 29.0086 20.2023 29.0086C19.7414 29.0086 19.3969 28.982 19.1406 28.9492V24.6164ZM3.76016 34.9867C3.76016 30.5023 7.93516 30.5023 7.93516 26.0188C7.93516 20.0406 8.80469 20.0406 12.1102 20.0406H17.6766V37.9758H3.76016V34.9867ZM4.99297 40.9648H3.02734V39.4703H6.03516C5.60547 39.8984 5.25391 40.4055 4.99297 40.9648ZM10.332 46.0961C10.2828 45.732 9.98984 45.4484 9.61953 45.4484C9.25078 45.4484 8.95625 45.732 8.90703 46.0961C8.3772 45.9619 7.89617 45.6805 7.51953 45.2844C7.66155 45.1749 7.75965 45.0182 7.79605 44.8426C7.83246 44.6671 7.80475 44.4842 7.71797 44.3273C7.63101 44.1746 7.4911 44.059 7.32468 44.0024C7.15826 43.9458 6.97688 43.9522 6.81484 44.0203C6.74219 43.7602 6.69063 43.4898 6.69063 43.2063C6.69063 42.9227 6.74141 42.6523 6.81406 42.3922C6.97624 42.4608 7.15799 42.4673 7.32469 42.4106C7.49138 42.3538 7.63137 42.2377 7.71797 42.0844C7.80454 41.9276 7.83212 41.7449 7.79572 41.5695C7.75933 41.3941 7.66135 41.2376 7.51953 41.1281C7.89636 40.7321 8.37729 40.4505 8.90703 40.3156C8.95625 40.6805 9.24922 40.9633 9.61953 40.9633C9.98906 40.9633 10.2828 40.6805 10.332 40.3156C10.8617 40.4502 11.3427 40.7315 11.7195 41.1273C11.5776 41.2369 11.4797 41.3937 11.4434 41.5692C11.4072 41.7448 11.435 41.9276 11.5219 42.0844C11.6086 42.2374 11.7485 42.3532 11.915 42.4098C12.0815 42.4664 12.263 42.4599 12.425 42.3914C12.4977 42.6523 12.5484 42.9219 12.5484 43.2063C12.5484 43.4898 12.4977 43.7586 12.425 44.0195C12.2629 43.951 12.0813 43.9444 11.9147 44.0012C11.7482 44.058 11.6083 44.1741 11.5219 44.3273C11.435 44.4842 11.4072 44.6669 11.4434 44.8425C11.4797 45.018 11.5776 45.1748 11.7195 45.2844C11.3422 45.6796 10.8615 45.9609 10.332 46.0961ZM27.7469 42.4594H22.2539C21.75 42.4594 21.3383 42.1234 21.3383 41.7117C21.3383 41.3016 21.75 40.9648 22.2539 40.9648H27.7469C28.2508 40.9648 28.6625 41.3016 28.6625 41.7117C28.6625 42.1234 28.25 42.4594 27.7469 42.4594ZM35.0219 40.9648H29.1898C29.0644 40.7402 28.8817 40.5528 28.6604 40.4216C28.4391 40.2905 28.187 40.2202 27.9297 40.218H22.0703C21.5328 40.218 21.0656 40.5211 20.8109 40.9648H14.2461C13.9882 40.4095 13.6352 39.9034 13.2031 39.4695H36.0641C35.6352 39.8984 35.2828 40.4055 35.0219 40.9648ZM40.3609 46.0961C40.3117 45.732 40.0187 45.4484 39.6484 45.4484C39.2797 45.4484 38.9859 45.732 38.9359 46.0961C38.4066 45.9613 37.9259 45.68 37.5492 45.2844C37.6911 45.1748 37.7891 45.018 37.8253 44.8425C37.8616 44.6669 37.8337 44.4842 37.7469 44.3273C37.6599 44.1746 37.52 44.059 37.3536 44.0024C37.1872 43.9458 37.0058 43.9522 36.8438 44.0203C36.7703 43.7609 36.7188 43.4906 36.7188 43.207C36.7188 42.9234 36.7703 42.6531 36.843 42.393C37.005 42.4615 37.1867 42.4681 37.3532 42.4113C37.5198 42.3545 37.6596 42.2384 37.7461 42.0852C37.8331 41.9285 37.861 41.7458 37.8247 41.5704C37.7884 41.3949 37.6904 41.2382 37.5484 41.1289C37.9253 40.7334 38.4059 40.4518 38.9352 40.3164C38.9852 40.6812 39.2781 40.9641 39.6477 40.9641C40.0172 40.9641 40.3109 40.6812 40.3602 40.3164C40.8899 40.4509 41.3708 40.7323 41.7477 41.1281C41.606 41.2379 41.5083 41.3947 41.472 41.5701C41.4358 41.7456 41.4635 41.9283 41.55 42.0852C41.6368 42.238 41.7767 42.3537 41.9432 42.4103C42.1097 42.4669 42.2911 42.4605 42.4531 42.3922C42.5258 42.6531 42.5766 42.9227 42.5766 43.207C42.5766 43.4906 42.5266 43.7594 42.4531 44.0203C42.2911 43.9517 42.1094 43.9452 41.9429 44.002C41.7763 44.0588 41.6365 44.1749 41.55 44.3281C41.4635 44.485 41.4358 44.6677 41.472 44.8432C41.5083 45.0186 41.606 45.1754 41.7477 45.2852C41.3707 45.6803 40.8902 45.9614 40.3609 46.0961ZM46.9727 40.9648H44.275C44.0176 40.4096 43.6649 39.9037 43.2328 39.4703H46.9727V40.9648Z" fill="#5D8834"/>
<path d="M4.49219 33.4914H5.95703V36.4805H4.49219V33.4914ZM8.88672 23.7774V27.3469C8.88672 27.3469 8.88672 29.0086 10.3516 29.0086H16.2109V21.536H10.3516C10.3516 21.5352 8.88672 21.7016 8.88672 23.7774Z" fill="#5D8834"/>
<path d="M9.61951 44.7008C10.4285 44.7008 11.0844 44.0317 11.0844 43.2063C11.0844 42.3809 10.4285 41.7117 9.61951 41.7117C8.8105 41.7117 8.15466 42.3809 8.15466 43.2063C8.15466 44.0317 8.8105 44.7008 9.61951 44.7008Z" fill="#5D8834"/>
<path d="M39.6484 44.7008C40.4574 44.7008 41.1133 44.0317 41.1133 43.2063C41.1133 42.3809 40.4574 41.7117 39.6484 41.7117C38.8394 41.7117 38.1836 42.3809 38.1836 43.2063C38.1836 44.0317 38.8394 44.7008 39.6484 44.7008Z" fill="#5D8834"/>
<path d="M21.993 26.6813C21.9992 25.7078 21.45 25.1516 20.4641 25.1516C20.2149 25.1516 20.036 25.1711 19.9274 25.1984V28.3477C20.036 28.3672 20.2024 28.3672 20.3625 28.3672C21.3852 28.3734 21.993 27.8 21.993 26.6813ZM39.55 26.5641H40.0164C40.5492 26.5641 40.8805 26.2758 40.8805 25.8375C40.8805 25.3547 40.5485 25.1328 40.036 25.1328C39.7875 25.1328 39.6274 25.1516 39.55 25.1711V26.5641Z" fill="#5D8834"/>
</svg>
