<svg width="64" height="40" viewBox="0 0 64 40" fill="none" xmlns="http://www.w3.org/2000/svg">
<path d="M48.432 21.138C46.126 21.53 44.31 22.476 43.269 23.546C41.585 25.276 40.768 27.353 40.387 29.135C39.666 29.343 38.882 29.509 38.049 29.643C40.672 16.268 40.852 9.866 40.856 9.48L35.435 29.231C35.435 29.231 35.173 29.092 34.753 28.819C34.938 25.935 34.593 22.368 32.714 18.968C31.901 17.503 30.464 15.973 28.491 14.654C29.825 10.52 33.742 5.594 42.274 0C46.537 6.466 49.83 14.874 48.432 21.138Z" fill="#AAD15D" fill-opacity="0.15"/>
<path d="M30.869 20.0322C30.056 18.5672 28.619 17.0372 26.646 15.7182C21.159 12.0522 11.563 10.0582 0 15.8612C8.38 19.3182 3.585 30.1492 11.795 36.1572C20 42.1732 29.414 37.4732 29.414 37.4732C29.414 37.4732 23.158 28.9312 17.131 21.7862C20.197 23.3442 31.682 35.9062 31.682 35.9062C31.682 35.9062 32.685 33.3932 32.908 29.8822C33.093 26.9992 32.748 23.4322 30.869 20.0322ZM49.494 22.9862C47.188 23.3782 45.372 24.3242 44.331 25.3942C42.647 27.1242 41.83 29.2012 41.449 30.9832C40.965 33.2402 41.173 35.0132 41.173 35.0132C41.173 35.0132 50.337 29.2152 52.481 28.7672C47.578 32.1542 42.304 36.3512 42.304 36.3512C42.304 36.3512 47.302 40.8242 53.354 38.4972C59.408 36.1762 58.274 28.7202 63.999 27.9992C58.746 23.2822 53.416 22.3212 49.494 22.9862Z" fill="#90B74B" fill-opacity="0.15"/>
</svg>
